<?xml version="1.0" encoding="utf-8"?>
<!-- Generator: Adobe Illustrator 16.0.0, SVG Export Plug-In . SVG Version: 6.00 Build 0)  -->
<!DOCTYPE svg PUBLIC "-//W3C//DTD SVG 1.1//EN" "http://www.w3.org/Graphics/SVG/1.1/DTD/svg11.dtd">
<svg version="1.1" id="Layer_1" xmlns="http://www.w3.org/2000/svg" xmlns:xlink="http://www.w3.org/1999/xlink" x="0px" y="0px"
	 width="220px" height="620px" viewBox="0 0 220 620" enable-background="new 0 0 220 620" xml:space="preserve">
<path fill="none" stroke="#000000" stroke-miterlimit="10" d="M116.914,56.84c0.219,2.188,6.104-4.737,12.092-5.649
	c9.469-1.446,20.793-8.259,17.668-17.308C139.537,13.235,115.67,44.418,116.914,56.84"/>
<path fill="none" stroke="#000000" stroke-miterlimit="10" d="M106.527,54.271c0.219,2.188,6.102-4.736,12.092-5.65
	c9.471-1.445,20.793-8.26,17.666-17.307C129.148,10.665,105.285,41.85,106.527,54.271"/>
<path fill="none" stroke="#000000" stroke-miterlimit="10" d="M94.116,56.846c0.221,2.188,6.101-4.736,12.093-5.648
	c9.469-1.444,20.793-8.26,17.666-17.307C116.74,13.242,92.873,44.424,94.116,56.846"/>
<path fill="none" stroke="#000000" stroke-miterlimit="10" d="M77.807,59.941c0.219,2.189,6.102-4.734,12.092-5.648
	c9.471-1.444,20.793-8.26,17.666-17.308C100.432,16.338,76.564,47.521,77.807,59.941"/>
<path fill="none" stroke="#000000" stroke-miterlimit="10" d="M67.361,64.705c0.684,2.088,4.939-5.938,10.592-8.119
	c8.938-3.449,18.529-12.539,13.531-20.703C80.074,17.254,63.475,52.84,67.361,64.705"/>
</svg>
