<?xml version="1.0" encoding="utf-8"?>
<!-- Generator: Adobe Illustrator 16.0.0, SVG Export Plug-In . SVG Version: 6.00 Build 0)  -->
<!DOCTYPE svg PUBLIC "-//W3C//DTD SVG 1.1//EN" "http://www.w3.org/Graphics/SVG/1.1/DTD/svg11.dtd">
<svg version="1.1" id="Layer_1" xmlns="http://www.w3.org/2000/svg" xmlns:xlink="http://www.w3.org/1999/xlink" x="0px" y="0px"
	 width="220px" height="620px" viewBox="0 0 220 620" enable-background="new 0 0 220 620" xml:space="preserve">
<path fill="none" stroke="#000000" stroke-miterlimit="10" d="M119.023,58.741c0.219,2.188,6.104-4.737,12.092-5.649
	c9.469-1.446,20.793-8.259,17.668-17.308C141.646,15.136,117.779,46.319,119.023,58.741"/>
<path fill="none" stroke="#000000" stroke-miterlimit="10" d="M108.637,56.172c0.219,2.188,6.102-4.736,12.092-5.65
	c9.471-1.445,20.793-8.26,17.666-17.307C131.258,12.566,107.395,43.75,108.637,56.172"/>
<path fill="none" stroke="#000000" stroke-miterlimit="10" d="M96.226,58.747c0.221,2.188,6.101-4.736,12.093-5.648
	c9.469-1.444,20.793-8.26,17.666-17.307C118.85,15.143,94.982,46.325,96.226,58.747"/>
<path fill="none" stroke="#000000" stroke-miterlimit="10" d="M79.916,61.842c0.219,2.189,6.102-4.734,12.092-5.648
	c9.471-1.444,20.793-8.26,17.666-17.308C102.541,18.239,78.674,49.422,79.916,61.842"/>
<path fill="none" stroke="#000000" stroke-miterlimit="10" d="M69.471,66.606c0.684,2.088,4.939-5.938,10.592-8.119
	c8.938-3.449,18.529-12.539,13.531-20.703C82.184,19.155,65.584,54.741,69.471,66.606"/>
</svg>
