<?xml version="1.0" encoding="utf-8"?>
<!-- Generator: Adobe Illustrator 16.0.0, SVG Export Plug-In . SVG Version: 6.00 Build 0)  -->
<!DOCTYPE svg PUBLIC "-//W3C//DTD SVG 1.1//EN" "http://www.w3.org/Graphics/SVG/1.1/DTD/svg11.dtd">
<svg version="1.1" id="Layer_1" xmlns="http://www.w3.org/2000/svg" xmlns:xlink="http://www.w3.org/1999/xlink" x="0px" y="0px"
	 width="220px" height="620px" viewBox="0 0 220 620" enable-background="new 0 0 220 620" xml:space="preserve">
<path fill="#020202" d="M115.403,66.036c0,0,0.012-0.051,0.033-0.15c0.01-0.053,0.027-0.1,0.051-0.164
	c0.025-0.068,0.064-0.131,0.109-0.203c0.176-0.301,0.445-0.619,0.838-0.832c0.197-0.111,0.422-0.162,0.67-0.229
	c0.244-0.064,0.508-0.133,0.791-0.199c0.566-0.131,1.207-0.266,1.906-0.387c0.701-0.119,1.463-0.225,2.273-0.311
	c0.809-0.084,1.666-0.145,2.557-0.176c0.889-0.035,1.812-0.039,2.756-0.023c0.941,0.021,1.904,0.062,2.877,0.154
	c0.973,0.086,1.959,0.248,2.924,0.572c0.242,0.068,0.486,0.176,0.723,0.262c0.121,0.049,0.242,0.105,0.359,0.158l0.18,0.082
	l0.043,0.02c-0.023-0.01,0.047,0.02,0.043,0.02l0.008,0.004l0.02,0.01l0.072,0.043c0.395,0.213,0.771,0.449,1.145,0.678
	c0.371,0.217,0.75,0.465,1.117,0.699c0.365,0.238,0.729,0.461,1.066,0.695c0.662,0.477,1.295,0.909,1.848,1.353
	c0.277,0.219,0.549,0.418,0.797,0.625c0.246,0.207,0.48,0.4,0.701,0.584c0.438,0.367,0.809,0.701,1.115,0.971
	c0.604,0.551,0.939,0.869,0.939,0.869l-0.119,0.158c0,0-0.396-0.25-1.088-0.67c-0.35-0.205-0.771-0.457-1.266-0.725
	c-0.246-0.133-0.51-0.275-0.787-0.424s-0.578-0.289-0.885-0.443c-0.611-0.314-1.301-0.604-2.014-0.926
	c-0.359-0.154-0.73-0.289-1.105-0.438c-0.188-0.074-0.377-0.146-0.568-0.222c-0.188-0.072-0.404-0.135-0.611-0.199
	c-0.418-0.129-0.844-0.256-1.266-0.406l-0.08-0.029l-0.02-0.006l-0.01-0.006c-0.01-0.004,0.053,0.025,0.021,0.012l-0.033-0.01
	l-0.139-0.037c-0.09-0.023-0.178-0.051-0.273-0.074c-0.195-0.037-0.379-0.088-0.584-0.117c-0.801-0.129-1.652-0.23-2.523-0.311
	c-0.871-0.074-1.762-0.1-2.641-0.088c-0.881,0.008-1.75,0.055-2.596,0.105c-0.844,0.053-1.66,0.119-2.436,0.182
	s-1.508,0.121-2.186,0.174c-0.676,0.059-1.295,0.109-1.846,0.154c-0.271,0.025-0.527,0.049-0.764,0.07
	c-0.232,0.023-0.447,0.055-0.646,0.027c-0.402-0.049-0.75-0.211-0.99-0.391c-0.059-0.043-0.111-0.076-0.166-0.119
	c-0.055-0.041-0.104-0.061-0.145-0.094c-0.082-0.059-0.127-0.09-0.127-0.09L115.403,66.036z"/>
<path fill="#020202" d="M103.398,66.036c0,0-0.011-0.051-0.033-0.15c-0.01-0.053-0.025-0.1-0.051-0.164
	c-0.025-0.068-0.063-0.131-0.109-0.203c-0.177-0.301-0.445-0.619-0.838-0.832c-0.197-0.111-0.422-0.162-0.669-0.229
	c-0.245-0.064-0.509-0.133-0.792-0.199c-0.566-0.131-1.205-0.266-1.906-0.387c-0.701-0.119-1.463-0.225-2.273-0.311
	c-0.809-0.084-1.666-0.145-2.556-0.176c-0.89-0.035-1.813-0.039-2.757-0.023c-0.941,0.021-1.904,0.062-2.877,0.154
	c-0.973,0.086-1.958,0.248-2.925,0.572c-0.239,0.068-0.483,0.176-0.722,0.262c-0.12,0.049-0.241,0.105-0.359,0.158l-0.18,0.082
	l-0.043,0.02c0.023-0.01-0.046,0.02-0.041,0.02l-0.01,0.004l-0.018,0.01l-0.074,0.043c-0.393,0.213-0.771,0.449-1.145,0.678
	c-0.37,0.217-0.75,0.465-1.117,0.699c-0.364,0.238-0.729,0.461-1.064,0.695c-0.663,0.477-1.297,0.909-1.849,1.353
	c-0.278,0.219-0.55,0.418-0.796,0.625c-0.248,0.207-0.482,0.4-0.702,0.584c-0.437,0.367-0.808,0.701-1.114,0.971
	c-0.604,0.551-0.939,0.869-0.939,0.869l0.118,0.158c0,0,0.396-0.25,1.088-0.67c0.35-0.205,0.771-0.457,1.265-0.725
	c0.247-0.133,0.51-0.275,0.787-0.424s0.578-0.289,0.885-0.443c0.611-0.314,1.301-0.604,2.014-0.926
	c0.359-0.154,0.73-0.289,1.105-0.438c0.188-0.074,0.377-0.146,0.568-0.222c0.188-0.072,0.404-0.135,0.611-0.199
	c0.418-0.129,0.844-0.256,1.266-0.406l0.08-0.029l0.02-0.006l0.01-0.006c0.01-0.004-0.052,0.025-0.021,0.012l0.034-0.01l0.138-0.037
	c0.09-0.023,0.179-0.051,0.273-0.074c0.196-0.037,0.379-0.088,0.584-0.117c0.801-0.129,1.654-0.23,2.523-0.311
	c0.871-0.074,1.762-0.1,2.642-0.088c0.88,0.008,1.751,0.055,2.595,0.105c0.844,0.053,1.66,0.119,2.436,0.182
	s1.508,0.121,2.186,0.174c0.676,0.059,1.295,0.109,1.845,0.154c0.272,0.025,0.528,0.049,0.765,0.07
	c0.234,0.023,0.448,0.055,0.648,0.027c0.4-0.049,0.749-0.211,0.988-0.391c0.059-0.043,0.111-0.076,0.166-0.119
	c0.055-0.041,0.104-0.061,0.146-0.094c0.082-0.059,0.126-0.09,0.126-0.09L103.398,66.036z"/>
</svg>
