<?xml version="1.0" encoding="utf-8"?>
<!-- Generator: Adobe Illustrator 16.0.0, SVG Export Plug-In . SVG Version: 6.00 Build 0)  -->
<!DOCTYPE svg PUBLIC "-//W3C//DTD SVG 1.1//EN" "http://www.w3.org/Graphics/SVG/1.1/DTD/svg11.dtd">
<svg version="1.1" id="Layer_1" xmlns="http://www.w3.org/2000/svg" xmlns:xlink="http://www.w3.org/1999/xlink" x="0px" y="0px"
	 width="220px" height="620px" viewBox="0 0 220 620" enable-background="new 0 0 220 620" xml:space="preserve">
<path fill="#020202" d="M117.085,67.278c0,0,0.027-0.196,0.139-0.439c0.113-0.241,0.32-0.532,0.662-0.715
	c0.35-0.165,0.789-0.333,1.289-0.53c0.502-0.195,1.074-0.402,1.707-0.61c1.264-0.407,2.766-0.823,4.42-1.08
	c0.826-0.132,1.689-0.225,2.574-0.256c0.883-0.034,1.785-0.007,2.684,0.104c0.896,0.109,1.789,0.297,2.641,0.574
	c0.211,0.071,0.42,0.148,0.629,0.223c0.205,0.084,0.408,0.175,0.609,0.261c0.379,0.187,0.754,0.37,1.121,0.552
	c0.363,0.184,0.723,0.35,1.072,0.538c0.348,0.194,0.689,0.382,1.018,0.57c0.164,0.093,0.326,0.187,0.486,0.276
	c0.158,0.092,0.307,0.195,0.459,0.289c0.297,0.192,0.584,0.378,0.861,0.556c0.275,0.178,0.525,0.375,0.768,0.553
	c0.24,0.178,0.471,0.344,0.672,0.521c0.205,0.172,0.396,0.334,0.574,0.482c0.166,0.16,0.32,0.307,0.459,0.439
	c0.139,0.131,0.256,0.258,0.357,0.367c0.102,0.107,0.189,0.199,0.256,0.275c0.133,0.152,0.205,0.234,0.205,0.234l-0.111,0.117
	c0,0-0.082-0.07-0.238-0.201c-0.078-0.066-0.176-0.145-0.287-0.238c-0.113-0.092-0.24-0.201-0.395-0.311
	c-0.15-0.111-0.316-0.236-0.498-0.369c-0.188-0.127-0.393-0.262-0.607-0.406c-0.213-0.148-0.457-0.287-0.709-0.434
	c-0.127-0.074-0.256-0.148-0.389-0.227c-0.131-0.076-0.262-0.162-0.408-0.234c-0.283-0.148-0.58-0.303-0.887-0.463
	c-0.154-0.078-0.309-0.164-0.469-0.238c-0.162-0.074-0.326-0.148-0.494-0.223c-0.334-0.149-0.674-0.312-1.02-0.473
	c-0.352-0.159-0.729-0.301-1.102-0.456c-0.373-0.152-0.75-0.306-1.133-0.461c-0.189-0.066-0.377-0.132-0.566-0.197
	c-0.191-0.057-0.385-0.117-0.578-0.172c-0.783-0.211-1.602-0.34-2.426-0.396c-0.826-0.055-1.658-0.047-2.477,0.012
	c-0.818,0.062-1.621,0.172-2.395,0.312c-1.547,0.289-2.971,0.695-4.172,1.105c-0.6,0.201-1.145,0.402-1.625,0.589
	c-0.482,0.188-0.895,0.369-1.24,0.504c-0.354,0.119-0.688,0.074-0.943,0c-0.258-0.072-0.426-0.18-0.426-0.18L117.085,67.278z"/>
<path fill="#020202" d="M103.295,67.278c0,0-0.027-0.196-0.139-0.439c-0.112-0.241-0.32-0.532-0.661-0.715
	c-0.351-0.165-0.789-0.333-1.291-0.53c-0.502-0.195-1.074-0.402-1.706-0.61c-1.264-0.407-2.766-0.823-4.42-1.08
	c-0.825-0.132-1.689-0.225-2.573-0.256c-0.883-0.034-1.786-0.007-2.684,0.104c-0.897,0.109-1.789,0.297-2.641,0.574
	c-0.213,0.071-0.421,0.148-0.63,0.223c-0.206,0.084-0.407,0.175-0.608,0.261c-0.38,0.187-0.754,0.37-1.122,0.552
	c-0.364,0.184-0.723,0.35-1.071,0.538c-0.349,0.194-0.69,0.382-1.019,0.57c-0.163,0.093-0.327,0.187-0.485,0.276
	c-0.158,0.092-0.308,0.195-0.459,0.289c-0.297,0.192-0.586,0.378-0.861,0.556s-0.525,0.375-0.768,0.553
	c-0.24,0.178-0.471,0.344-0.673,0.521c-0.204,0.172-0.396,0.334-0.573,0.482c-0.167,0.16-0.32,0.307-0.459,0.439
	c-0.141,0.131-0.255,0.258-0.357,0.367c-0.102,0.107-0.189,0.199-0.256,0.275c-0.134,0.152-0.207,0.234-0.207,0.234l0.111,0.117
	c0,0,0.084-0.07,0.239-0.201c0.078-0.066,0.175-0.145,0.288-0.238c0.113-0.092,0.239-0.201,0.394-0.311
	c0.15-0.111,0.317-0.236,0.498-0.369c0.188-0.127,0.392-0.262,0.608-0.406c0.213-0.148,0.455-0.287,0.707-0.434
	c0.127-0.074,0.258-0.148,0.389-0.227c0.133-0.076,0.264-0.162,0.408-0.234c0.285-0.148,0.582-0.303,0.889-0.463
	c0.154-0.078,0.307-0.164,0.469-0.238s0.326-0.148,0.494-0.223c0.334-0.149,0.672-0.312,1.02-0.473
	c0.35-0.159,0.728-0.301,1.102-0.456c0.371-0.152,0.75-0.306,1.133-0.461c0.188-0.066,0.375-0.132,0.565-0.197
	c0.192-0.057,0.384-0.117,0.579-0.172c0.782-0.211,1.601-0.34,2.426-0.396c0.826-0.055,1.658-0.047,2.477,0.012
	c0.818,0.062,1.621,0.172,2.395,0.312c1.547,0.289,2.971,0.695,4.17,1.105c0.601,0.201,1.147,0.402,1.627,0.589
	c0.481,0.188,0.894,0.369,1.239,0.504c0.353,0.119,0.688,0.074,0.943,0c0.258-0.072,0.427-0.18,0.427-0.18L103.295,67.278z"/>
</svg>
