<?xml version="1.0" encoding="utf-8"?>
<!-- Generator: Adobe Illustrator 16.0.0, SVG Export Plug-In . SVG Version: 6.00 Build 0)  -->
<!DOCTYPE svg PUBLIC "-//W3C//DTD SVG 1.1//EN" "http://www.w3.org/Graphics/SVG/1.1/DTD/svg11.dtd">
<svg version="1.1" id="Layer_1" xmlns="http://www.w3.org/2000/svg" xmlns:xlink="http://www.w3.org/1999/xlink" x="0px" y="0px"
	 width="220px" height="620px" viewBox="0 0 220 620" enable-background="new 0 0 220 620" xml:space="preserve">
<path fill="#020202" d="M115.655,68.768c0,0-0.022-0.373,0.185-0.426c0.199-0.082,0.496-0.199,0.867-0.342
	c0.748-0.285,1.826-0.672,3.139-1.074c1.314-0.404,2.869-0.801,4.561-1.128c0.849-0.159,1.73-0.294,2.633-0.392
	c0.904-0.092,1.828-0.158,2.756-0.162c0.927-0.006,1.856,0.034,2.77,0.133c0.912,0.098,1.809,0.252,2.658,0.49
	c0.213,0.057,0.422,0.125,0.629,0.187l0.076,0.024l0.038,0.01l0.038,0.013l0.018,0.006l0.145,0.054
	c0.098,0.036,0.194,0.071,0.291,0.105c0.383,0.145,0.756,0.287,1.12,0.426c0.734,0.327,1.432,0.635,2.032,0.982
	c0.148,0.083,0.299,0.164,0.445,0.243c0.143,0.083,0.276,0.175,0.409,0.258c0.267,0.175,0.525,0.323,0.751,0.489
	c0.227,0.167,0.438,0.323,0.635,0.468c0.189,0.151,0.361,0.294,0.515,0.421c0.306,0.259,0.537,0.477,0.692,0.619
	c0.156,0.146,0.239,0.223,0.239,0.223l-0.106,0.146c0,0-0.1-0.061-0.281-0.172c-0.092-0.057-0.202-0.124-0.335-0.203
	c-0.131-0.08-0.276-0.181-0.448-0.275c-0.17-0.102-0.359-0.211-0.562-0.33c-0.209-0.113-0.433-0.231-0.675-0.361
	c-0.236-0.134-0.505-0.248-0.775-0.384c-0.137-0.064-0.277-0.138-0.423-0.2c-0.147-0.062-0.298-0.126-0.452-0.192
	c-0.607-0.28-1.289-0.5-1.99-0.771c-0.373-0.114-0.756-0.231-1.146-0.352c-0.097-0.03-0.195-0.063-0.294-0.094l-0.147-0.048
	l-0.128-0.033c-0.195-0.05-0.392-0.105-0.59-0.152c-0.2-0.042-0.403-0.085-0.604-0.129c-0.206-0.035-0.414-0.07-0.621-0.107
	c-0.416-0.064-0.842-0.121-1.273-0.159c-0.861-0.079-1.746-0.105-2.631-0.086c-0.885,0.022-1.77,0.074-2.644,0.164
	c-0.87,0.087-1.726,0.208-2.552,0.342c-0.826,0.13-1.623,0.282-2.375,0.444c-0.753,0.16-1.46,0.337-2.111,0.499
	c-1.305,0.329-2.379,0.659-3.126,0.901c-0.374,0.12-0.665,0.221-0.862,0.29c-0.189,0.099-0.423-0.196-0.423-0.196L115.655,68.768z"
	/>
<path fill="#020202" d="M104.345,68.768c0,0,0.023-0.373-0.185-0.426c-0.2-0.082-0.494-0.199-0.867-0.342
	c-0.748-0.285-1.826-0.672-3.139-1.074c-1.313-0.404-2.87-0.801-4.562-1.128c-0.848-0.159-1.73-0.294-2.632-0.392
	c-0.903-0.092-1.827-0.158-2.755-0.162c-0.926-0.006-1.856,0.034-2.769,0.133c-0.914,0.098-1.81,0.252-2.659,0.49
	c-0.212,0.057-0.421,0.125-0.629,0.187l-0.078,0.024l-0.038,0.01l-0.036,0.013l-0.019,0.006l-0.146,0.054
	c-0.097,0.036-0.194,0.071-0.289,0.105c-0.383,0.145-0.756,0.287-1.122,0.426c-0.734,0.327-1.43,0.635-2.029,0.982
	c-0.152,0.083-0.3,0.164-0.446,0.243c-0.143,0.083-0.279,0.175-0.411,0.258c-0.266,0.175-0.524,0.323-0.751,0.489
	c-0.225,0.167-0.437,0.323-0.632,0.468c-0.19,0.151-0.362,0.294-0.516,0.421c-0.307,0.259-0.537,0.477-0.692,0.619
	c-0.155,0.146-0.239,0.223-0.239,0.223l0.107,0.146c0,0,0.097-0.061,0.279-0.172c0.092-0.057,0.204-0.124,0.336-0.203
	c0.132-0.08,0.278-0.181,0.45-0.275c0.17-0.102,0.357-0.211,0.561-0.33c0.208-0.113,0.433-0.231,0.673-0.361
	c0.237-0.134,0.505-0.248,0.777-0.384c0.138-0.064,0.275-0.138,0.422-0.2c0.147-0.062,0.298-0.126,0.452-0.192
	c0.607-0.28,1.29-0.5,1.992-0.771c0.372-0.114,0.755-0.231,1.145-0.352c0.098-0.03,0.194-0.063,0.294-0.094l0.147-0.048l0.13-0.033
	c0.195-0.05,0.39-0.105,0.589-0.152c0.199-0.042,0.401-0.085,0.605-0.129c0.206-0.035,0.412-0.07,0.621-0.107
	c0.417-0.064,0.841-0.121,1.273-0.159c0.862-0.079,1.746-0.105,2.631-0.086c0.885,0.022,1.771,0.074,2.643,0.164
	c0.87,0.087,1.727,0.208,2.552,0.342c0.827,0.13,1.623,0.282,2.375,0.444c0.753,0.16,1.459,0.337,2.113,0.499
	c1.305,0.329,2.379,0.659,3.125,0.901c0.374,0.12,0.664,0.221,0.862,0.29c0.188,0.099,0.423-0.196,0.423-0.196L104.345,68.768z"/>
</svg>
