<?xml version="1.0" encoding="utf-8"?>
<!-- Generator: Adobe Illustrator 16.0.0, SVG Export Plug-In . SVG Version: 6.00 Build 0)  -->
<!DOCTYPE svg PUBLIC "-//W3C//DTD SVG 1.1//EN" "http://www.w3.org/Graphics/SVG/1.1/DTD/svg11.dtd">
<svg version="1.1" id="Layer_1" xmlns="http://www.w3.org/2000/svg" xmlns:xlink="http://www.w3.org/1999/xlink" x="0px" y="0px"
	 width="220px" height="620px" viewBox="0 0 220 620" enable-background="new 0 0 220 620" xml:space="preserve">
<path fill="#F3A5A6" d="M117.02,80.13c0.504,0.164,1.012,0.313,1.521,0.464c0.438,0.127,0.879,0.248,1.32,0.364
	c-0.352-0.95-0.5-1.94-0.52-3.112c-0.396,0.331-0.783,0.675-1.152,1.039C117.781,79.28,117.387,79.694,117.02,80.13"/>
<path fill="#FFFFFF" d="M139.193,74.305c-0.564-0.142-1.129-0.273-1.699-0.384c-0.57-0.107-1.141-0.217-1.715-0.293
	c-0.574-0.08-1.15-0.149-1.727-0.192c-0.578-0.05-1.156-0.067-1.734-0.077c-0.58-0.002-1.156,0.012-1.732,0.047
	c-0.102,0.006-0.203,0.013-0.303,0.02c-1.326,0.134-2.275,0.279-2.906,0.402c-0.074,0.015-0.154,0.031-0.229,0.045
	c-0.553,0.12-1.117,0.26-1.662,0.442c-0.547,0.181-1.086,0.384-1.609,0.621c-0.527,0.238-1.043,0.501-1.543,0.789
	c-0.5,0.289-0.986,0.604-1.463,0.934c-0.477,0.332-0.938,0.687-1.381,1.06c-0.051,0.043-0.098,0.086-0.148,0.128
	c0.02,1.172,0.168,2.162,0.52,3.112c0.086,0.021,0.17,0.045,0.256,0.066c1.059,0.266,2.129,0.489,3.205,0.658
	c2.15,0.336,4.348,0.469,6.512,0.216c0.537-0.062,1.078-0.157,1.604-0.277c0.527-0.134,1.049-0.286,1.551-0.492
	c0.5-0.206,0.994-0.434,1.463-0.709c0.467-0.272,0.92-0.573,1.35-0.903c0.859-0.666,1.633-1.438,2.311-2.285
	c0.34-0.422,0.656-0.865,0.947-1.322c0.289-0.459,0.562-0.933,0.785-1.422v0.001c0-0.003,0-0.007,0-0.01
	C139.627,74.419,139.41,74.36,139.193,74.305"/>
<path fill="none" stroke="#020202" stroke-width="0.5" stroke-miterlimit="10" d="M119.893,81.044
	c-0.4-1.049-0.555-2.141-0.555-3.471"/>
<path fill="#020202" d="M140.029,74.567c-0.23,0.506-0.506,0.98-0.801,1.447c-0.297,0.463-0.619,0.908-0.965,1.338
	c-0.689,0.857-1.475,1.638-2.348,2.311c-0.438,0.334-0.896,0.64-1.373,0.915c-0.477,0.277-0.977,0.509-1.488,0.716
	c-0.512,0.209-1.039,0.361-1.574,0.496c-0.539,0.121-1.076,0.215-1.625,0.277c-2.186,0.252-4.395,0.111-6.557-0.229
	c-1.084-0.171-2.156-0.399-3.219-0.667c-1.059-0.271-2.111-0.582-3.127-0.998l-0.037-0.011l0.023-0.037
	c0.152-0.253,0.324-0.493,0.502-0.729c0.18-0.236,0.361-0.471,0.555-0.693c0.387-0.448,0.797-0.879,1.227-1.289
	c0.869-0.805,1.807-1.549,2.826-2.17c0.51-0.311,1.033-0.599,1.572-0.859c0.537-0.262,1.092-0.488,1.654-0.691
	c0.566-0.207,1.137-0.367,1.73-0.512c0.289-0.062,0.568-0.131,0.867-0.181c0.295-0.048,0.592-0.108,0.889-0.144
	c0.295-0.041,0.59-0.082,0.887-0.108c0.297-0.034,0.594-0.056,0.893-0.075c0.594-0.043,1.191-0.047,1.787-0.041
	c0.596,0.014,1.189,0.037,1.785,0.094c0.592,0.053,1.184,0.121,1.77,0.22c0.588,0.095,1.172,0.209,1.748,0.35
	c0.58,0.138,1.152,0.296,1.717,0.481c0.564,0.181,1.121,0.387,1.67,0.615c0.545,0.235,1.084,0.474,1.602,0.773l-0.092,0.182
	c-0.541-0.207-1.094-0.403-1.652-0.57c-0.557-0.174-1.115-0.328-1.68-0.473c-0.564-0.143-1.131-0.274-1.701-0.385
	c-0.57-0.107-1.139-0.218-1.713-0.292c-0.576-0.08-1.152-0.151-1.729-0.192c-0.578-0.051-1.154-0.068-1.734-0.078
	c-0.578-0.002-1.156,0.012-1.732,0.047c-0.289,0.016-0.578,0.037-0.865,0.068c-0.289,0.023-0.574,0.062-0.859,0.099
	c-0.289,0.032-0.568,0.089-0.852,0.134c-0.283,0.047-0.574,0.113-0.861,0.166c-0.553,0.121-1.117,0.26-1.662,0.441
	s-1.084,0.385-1.609,0.622c-0.525,0.238-1.041,0.501-1.543,0.79c-0.5,0.289-0.986,0.604-1.463,0.934
	c-0.475,0.33-0.938,0.685-1.381,1.06c-0.449,0.37-0.885,0.757-1.299,1.167c-0.42,0.406-0.824,0.829-1.201,1.277l-0.014-0.048
	c0.518,0.171,1.043,0.323,1.564,0.479c0.523,0.151,1.049,0.296,1.578,0.43c1.059,0.266,2.127,0.49,3.205,0.657
	c2.15,0.337,4.348,0.47,6.512,0.216c0.537-0.061,1.078-0.156,1.604-0.275c0.525-0.135,1.049-0.286,1.549-0.494
	c0.502-0.204,0.996-0.433,1.463-0.707c0.469-0.273,0.92-0.574,1.35-0.904c0.859-0.666,1.633-1.438,2.312-2.285
	c0.338-0.422,0.656-0.865,0.947-1.322c0.289-0.459,0.562-0.934,0.783-1.421L140.029,74.567z"/>
<path fill="#F3A5A6" d="M103.129,80.13c-0.504,0.164-1.014,0.313-1.521,0.464c-0.439,0.127-0.879,0.248-1.32,0.364
	c0.35-0.95,0.499-1.94,0.52-3.112c0.396,0.331,0.783,0.675,1.151,1.039C102.367,79.28,102.76,79.694,103.129,80.13"/>
<path fill="#FFFFFF" d="M80.954,74.305c0.564-0.142,1.13-0.273,1.7-0.384c0.571-0.107,1.14-0.217,1.716-0.293
	c0.573-0.08,1.148-0.149,1.727-0.192c0.576-0.05,1.156-0.067,1.734-0.077c0.578-0.002,1.156,0.012,1.733,0.047
	c0.101,0.006,0.2,0.013,0.302,0.02c1.325,0.134,2.273,0.279,2.904,0.402c0.076,0.015,0.154,0.031,0.23,0.045
	c0.552,0.12,1.116,0.26,1.66,0.442c0.547,0.181,1.086,0.384,1.611,0.621c0.525,0.238,1.041,0.501,1.541,0.789
	c0.501,0.289,0.986,0.604,1.464,0.934c0.477,0.332,0.937,0.687,1.381,1.06c0.051,0.043,0.1,0.086,0.149,0.128
	c-0.021,1.172-0.17,2.162-0.521,3.112c-0.085,0.021-0.17,0.045-0.256,0.066c-1.059,0.266-2.127,0.489-3.204,0.658
	c-2.151,0.336-4.349,0.469-6.511,0.216c-0.539-0.062-1.079-0.157-1.605-0.277c-0.525-0.134-1.047-0.286-1.549-0.492
	s-0.994-0.434-1.463-0.709c-0.469-0.272-0.92-0.573-1.35-0.903c-0.859-0.666-1.632-1.438-2.312-2.285
	c-0.339-0.422-0.656-0.865-0.947-1.322c-0.289-0.459-0.562-0.933-0.783-1.422l-0.001,0.001c0-0.003,0-0.007,0-0.01
	C80.52,74.419,80.737,74.36,80.954,74.305"/>
<path fill="none" stroke="#020202" stroke-width="0.5" stroke-miterlimit="10" d="M100.254,81.044
	c0.402-1.049,0.557-2.141,0.557-3.471"/>
<path fill="#020202" d="M80.118,74.567c0.232,0.506,0.508,0.98,0.801,1.447c0.297,0.463,0.62,0.908,0.965,1.338
	c0.691,0.857,1.477,1.638,2.349,2.311c0.438,0.334,0.896,0.64,1.374,0.915c0.475,0.277,0.977,0.509,1.486,0.716
	c0.512,0.209,1.042,0.361,1.575,0.496c0.54,0.121,1.077,0.215,1.626,0.277c2.185,0.252,4.394,0.111,6.557-0.229
	c1.082-0.171,2.154-0.399,3.217-0.667c1.061-0.271,2.113-0.582,3.128-0.998l0.037-0.011l-0.022-0.037
	c-0.154-0.253-0.326-0.493-0.504-0.729s-0.359-0.471-0.555-0.693c-0.387-0.448-0.795-0.879-1.223-1.289
	c-0.872-0.805-1.81-1.549-2.829-2.17c-0.51-0.311-1.033-0.599-1.571-0.859c-0.537-0.262-1.092-0.488-1.655-0.691
	c-0.565-0.207-1.138-0.367-1.729-0.512c-0.289-0.062-0.57-0.131-0.866-0.181c-0.296-0.048-0.595-0.108-0.89-0.144
	c-0.295-0.041-0.59-0.082-0.889-0.108c-0.295-0.034-0.592-0.056-0.891-0.075c-0.596-0.043-1.191-0.047-1.787-0.041
	c-0.596,0.014-1.191,0.037-1.785,0.094c-0.594,0.053-1.185,0.121-1.771,0.22c-0.586,0.095-1.171,0.209-1.748,0.35
	c-0.578,0.138-1.15,0.296-1.715,0.481c-0.564,0.181-1.122,0.387-1.67,0.615c-0.545,0.235-1.085,0.474-1.603,0.773l0.091,0.182
	c0.541-0.207,1.095-0.403,1.652-0.57c0.557-0.174,1.118-0.328,1.682-0.473c0.563-0.143,1.129-0.274,1.699-0.385
	c0.57-0.107,1.14-0.218,1.715-0.292c0.574-0.08,1.15-0.151,1.727-0.192c0.578-0.051,1.157-0.068,1.734-0.078
	c0.579-0.002,1.158,0.012,1.734,0.047c0.289,0.016,0.576,0.037,0.864,0.068c0.288,0.023,0.573,0.062,0.861,0.099
	c0.288,0.032,0.567,0.089,0.85,0.134c0.283,0.047,0.574,0.113,0.861,0.166c0.552,0.121,1.117,0.26,1.661,0.441
	c0.545,0.182,1.086,0.385,1.611,0.622c0.525,0.238,1.04,0.501,1.541,0.79s0.986,0.604,1.464,0.934
	c0.476,0.33,0.937,0.685,1.381,1.06c0.449,0.37,0.886,0.757,1.3,1.167c0.419,0.406,0.824,0.829,1.201,1.277l0.014-0.048
	c-0.518,0.171-1.042,0.323-1.564,0.479c-0.525,0.151-1.051,0.296-1.579,0.43c-1.059,0.266-2.126,0.49-3.204,0.657
	c-2.152,0.337-4.349,0.47-6.512,0.216c-0.537-0.061-1.078-0.156-1.605-0.275c-0.524-0.135-1.046-0.286-1.548-0.494
	c-0.502-0.204-0.995-0.433-1.462-0.707c-0.471-0.273-0.921-0.574-1.352-0.904c-0.857-0.666-1.631-1.438-2.312-2.285
	c-0.339-0.422-0.655-0.865-0.948-1.322c-0.287-0.459-0.561-0.934-0.782-1.421L80.118,74.567z"/>
</svg>
