<?xml version="1.0" encoding="utf-8"?>
<!-- Generator: Adobe Illustrator 16.0.0, SVG Export Plug-In . SVG Version: 6.00 Build 0)  -->
<!DOCTYPE svg PUBLIC "-//W3C//DTD SVG 1.1//EN" "http://www.w3.org/Graphics/SVG/1.1/DTD/svg11.dtd">
<svg version="1.1" id="Layer_1" xmlns="http://www.w3.org/2000/svg" xmlns:xlink="http://www.w3.org/1999/xlink" x="0px" y="0px"
	 width="220px" height="620px" viewBox="0 0 220 620" enable-background="new 0 0 220 620" xml:space="preserve">
<path fill="#F3A5A6" d="M119.447,76.933c-0.049,0.052-0.096,0.102-0.145,0.153c-0.4,0.438-0.787,0.894-1.156,1.361
	c-0.369,0.456-0.719,0.929-1.053,1.413c0.459,0.34,0.934,0.656,1.412,0.971c0.488,0.314,0.982,0.618,1.492,0.9
	c0.219,0.123,0.441,0.241,0.666,0.357c-0.895-1.5-1.207-2.924-1.207-4.83C119.457,77.022,119.447,76.987,119.447,76.933"/>
<path fill="#FFFFFF" d="M138.135,74.134c-0.516-0.292-1.035-0.572-1.568-0.828c-0.529-0.26-1.068-0.5-1.615-0.718
	c-0.545-0.216-1.102-0.409-1.664-0.571c-0.562-0.156-1.133-0.287-1.709-0.377c-0.576-0.084-1.154-0.146-1.732-0.149
	c-0.146-0.007-0.291,0.005-0.434,0.006c-0.146,0.003-0.291,0.007-0.432,0.022l-0.424,0.036l-0.443,0.067
	c-0.561,0.09-1.135,0.221-1.684,0.408c-0.553,0.181-1.096,0.403-1.617,0.668c-0.523,0.259-1.033,0.553-1.523,0.881
	c-0.49,0.322-0.965,0.674-1.42,1.05s-0.904,0.763-1.328,1.176c-0.379,0.36-0.738,0.743-1.094,1.128c0,0.053,0.01,0.09,0.01,0.326
	c0,1.906,0.312,3.33,1.207,4.829c0.807,0.418,1.641,0.787,2.496,1.097c0.545,0.199,1.102,0.362,1.664,0.504
	c0.562,0.146,1.135,0.244,1.707,0.318c0.576,0.074,1.156,0.096,1.734,0.089c0.578-0.011,1.15-0.077,1.723-0.175
	c0.566-0.115,1.127-0.263,1.67-0.462c0.541-0.204,1.074-0.433,1.582-0.71c0.508-0.279,1.004-0.576,1.477-0.914
	c0.471-0.337,0.93-0.692,1.365-1.073c0.875-0.763,1.682-1.603,2.42-2.499c0.371-0.447,0.725-0.908,1.061-1.381
	c0.305-0.429,0.598-0.869,0.865-1.32c-0.254-0.175-0.51-0.344-0.768-0.506C139.158,74.733,138.65,74.428,138.135,74.134"/>
<path fill="none" stroke="#020202" stroke-width="0.5" stroke-miterlimit="10" d="M120.771,82.265
	c-0.979-1.564-1.312-3.025-1.312-5.008c0-0.432-0.035-0.195,0.018-0.613"/>
<path fill="#020202" d="M140.688,75.524c-0.295,0.51-0.619,0.996-0.959,1.474c-0.34,0.476-0.697,0.94-1.072,1.39
	c-0.746,0.902-1.561,1.748-2.447,2.516c-0.439,0.385-0.904,0.744-1.385,1.083c-0.477,0.341-0.98,0.642-1.496,0.923
	s-1.059,0.514-1.607,0.717c-0.551,0.203-1.123,0.352-1.699,0.467c-0.576,0.098-1.164,0.166-1.752,0.174
	c-0.586,0.005-1.174-0.017-1.758-0.094c-0.58-0.077-1.158-0.178-1.727-0.324c-0.568-0.145-1.129-0.312-1.68-0.514
	c-1.102-0.399-2.164-0.896-3.184-1.469c-0.51-0.287-1.01-0.59-1.496-0.916s-0.955-0.676-1.396-1.059l-0.021-0.02l0.014-0.021
	c0.271-0.539,0.592-1.049,0.922-1.555c0.338-0.498,0.693-0.986,1.068-1.461c0.373-0.475,0.777-0.925,1.193-1.365
	c0.418-0.439,0.854-0.861,1.314-1.26c0.459-0.4,0.939-0.773,1.441-1.122c0.498-0.351,1.02-0.673,1.564-0.956
	c0.539-0.291,1.104-0.54,1.684-0.746c0.582-0.213,1.176-0.367,1.795-0.482l0.443-0.069l0.473-0.046
	c0.158-0.018,0.312-0.021,0.467-0.026c0.154-0.001,0.309-0.015,0.463-0.009c0.621,0.002,1.236,0.061,1.848,0.15
	c0.607,0.1,1.205,0.243,1.795,0.412c0.586,0.176,1.162,0.381,1.729,0.611c0.564,0.232,1.113,0.501,1.652,0.782
	c0.535,0.288,1.059,0.595,1.564,0.931c0.508,0.33,1,0.686,1.475,1.062c0.469,0.384,0.934,0.767,1.361,1.203l-0.139,0.153
	c-0.479-0.348-0.971-0.689-1.475-1.004c-0.5-0.322-1.01-0.629-1.523-0.922c-0.516-0.292-1.037-0.572-1.57-0.828
	c-0.529-0.262-1.066-0.5-1.613-0.719c-0.547-0.215-1.102-0.408-1.664-0.57c-0.564-0.156-1.133-0.287-1.709-0.377
	c-0.576-0.084-1.156-0.146-1.734-0.15c-0.145-0.006-0.291,0.006-0.434,0.007c-0.145,0.003-0.291,0.006-0.43,0.022l-0.424,0.036
	l-0.445,0.067c-0.559,0.09-1.135,0.221-1.684,0.408c-0.553,0.182-1.094,0.404-1.615,0.668c-0.525,0.258-1.035,0.553-1.523,0.881
	c-0.49,0.322-0.965,0.673-1.42,1.051c-0.455,0.374-0.904,0.762-1.33,1.174c-0.428,0.41-0.834,0.844-1.236,1.283
	c-0.402,0.438-0.787,0.893-1.156,1.36c-0.377,0.463-0.732,0.944-1.07,1.437l-0.008-0.041c0.465,0.348,0.951,0.67,1.436,0.989
	c0.49,0.312,0.984,0.618,1.492,0.9c1.014,0.567,2.07,1.058,3.162,1.451c0.545,0.199,1.104,0.364,1.666,0.505
	c0.561,0.146,1.133,0.243,1.707,0.317c0.574,0.075,1.154,0.097,1.732,0.09c0.58-0.011,1.15-0.077,1.725-0.175
	c0.564-0.115,1.125-0.262,1.668-0.463c0.541-0.202,1.074-0.432,1.582-0.71c0.51-0.277,1.006-0.575,1.477-0.913
	c0.473-0.336,0.932-0.691,1.367-1.074c0.875-0.762,1.682-1.602,2.42-2.497c0.369-0.448,0.723-0.908,1.061-1.38
	c0.334-0.475,0.656-0.96,0.945-1.459L140.688,75.524z"/>
<path fill="#F3A5A6" d="M100.68,76.933c0.048,0.052,0.095,0.102,0.143,0.153c0.401,0.438,0.786,0.894,1.156,1.361
	c0.37,0.456,0.72,0.929,1.054,1.413c-0.458,0.34-0.934,0.656-1.412,0.971c-0.488,0.314-0.983,0.618-1.49,0.9
	c-0.221,0.123-0.443,0.241-0.667,0.357c0.896-1.5,1.206-2.924,1.206-4.83C100.669,77.022,100.679,76.987,100.68,76.933"/>
<path fill="#FFFFFF" d="M80.466,75.056c-0.258,0.162-0.516,0.331-0.768,0.506c0.268,0.45,0.561,0.892,0.864,1.32
	c0.337,0.473,0.69,0.934,1.06,1.381c0.738,0.896,1.547,1.736,2.42,2.498c0.436,0.383,0.896,0.737,1.368,1.074
	c0.471,0.337,0.968,0.635,1.476,0.913s1.041,0.507,1.582,0.711c0.543,0.199,1.104,0.347,1.669,0.462
	c0.573,0.098,1.146,0.164,1.724,0.175c0.578,0.007,1.158-0.015,1.733-0.089c0.573-0.074,1.146-0.174,1.708-0.318
	c0.562-0.142,1.119-0.305,1.664-0.504c0.855-0.309,1.688-0.678,2.497-1.096c0.896-1.5,1.206-2.924,1.206-4.83
	c0-0.236,0.01-0.271,0.011-0.326c-0.356-0.385-0.716-0.768-1.093-1.128c-0.426-0.413-0.874-0.802-1.331-1.176
	c-0.454-0.376-0.931-0.728-1.421-1.05c-0.488-0.328-0.998-0.622-1.521-0.881c-0.523-0.265-1.064-0.487-1.617-0.668
	c-0.549-0.188-1.123-0.318-1.684-0.408l-0.445-0.067l-0.422-0.036c-0.141-0.016-0.286-0.02-0.431-0.022
	c-0.144-0.001-0.289-0.013-0.435-0.006c-0.578,0.003-1.158,0.065-1.733,0.149c-0.576,0.09-1.146,0.221-1.71,0.377
	c-0.562,0.162-1.117,0.355-1.662,0.571c-0.548,0.218-1.086,0.458-1.615,0.718c-0.533,0.256-1.054,0.536-1.569,0.828
	C81.476,74.428,80.966,74.733,80.466,75.056"/>
<path fill="none" stroke="#020202" stroke-width="0.5" stroke-miterlimit="10" d="M99.355,82.265
	c0.979-1.564,1.312-3.025,1.312-5.008c0-0.432,0.034-0.195-0.018-0.613"/>
<path fill="#020202" d="M79.437,75.524c0.297,0.51,0.621,0.996,0.961,1.474c0.34,0.476,0.697,0.94,1.071,1.39
	c0.746,0.902,1.563,1.748,2.446,2.516c0.441,0.385,0.907,0.744,1.385,1.083c0.479,0.341,0.982,0.642,1.498,0.923
	s1.057,0.514,1.607,0.717c0.553,0.203,1.122,0.352,1.699,0.467c0.575,0.098,1.164,0.166,1.752,0.174
	c0.586,0.005,1.174-0.017,1.756-0.094s1.161-0.178,1.729-0.324c0.566-0.145,1.13-0.312,1.68-0.514
	c1.101-0.399,2.164-0.896,3.184-1.469c0.51-0.287,1.011-0.59,1.495-0.916c0.486-0.326,0.956-0.676,1.397-1.059l0.021-0.02
	l-0.014-0.021c-0.272-0.539-0.593-1.049-0.922-1.555c-0.338-0.498-0.694-0.986-1.068-1.461c-0.375-0.475-0.778-0.925-1.193-1.365
	c-0.419-0.439-0.854-0.861-1.314-1.26c-0.457-0.4-0.939-0.773-1.441-1.122c-0.498-0.351-1.021-0.673-1.563-0.956
	c-0.54-0.291-1.104-0.54-1.686-0.746c-0.581-0.213-1.175-0.367-1.794-0.482l-0.445-0.069l-0.471-0.046
	c-0.157-0.018-0.312-0.021-0.467-0.026c-0.155-0.001-0.311-0.015-0.465-0.009c-0.619,0.002-1.235,0.061-1.845,0.15
	c-0.608,0.1-1.206,0.243-1.796,0.412c-0.588,0.176-1.164,0.381-1.729,0.611c-0.565,0.232-1.113,0.501-1.651,0.782
	c-0.535,0.288-1.06,0.595-1.565,0.931c-0.508,0.33-1,0.686-1.475,1.062c-0.469,0.384-0.934,0.767-1.361,1.203l0.137,0.153
	c0.481-0.348,0.973-0.689,1.477-1.004c0.5-0.322,1.009-0.629,1.523-0.922c0.516-0.292,1.036-0.572,1.569-0.828
	c0.528-0.262,1.068-0.5,1.614-0.719c0.547-0.215,1.102-0.408,1.664-0.57c0.564-0.156,1.134-0.287,1.71-0.377
	c0.574-0.084,1.153-0.146,1.733-0.15c0.145-0.006,0.289,0.006,0.434,0.007c0.146,0.003,0.29,0.006,0.43,0.022l0.424,0.036
	l0.443,0.067c0.561,0.09,1.137,0.221,1.685,0.408c0.554,0.182,1.094,0.404,1.616,0.668c0.525,0.258,1.033,0.553,1.522,0.881
	c0.491,0.322,0.966,0.673,1.422,1.051c0.456,0.374,0.903,0.762,1.329,1.174c0.429,0.41,0.834,0.844,1.236,1.283
	c0.402,0.438,0.787,0.893,1.157,1.36c0.376,0.463,0.731,0.944,1.071,1.437l0.006-0.041c-0.465,0.348-0.951,0.67-1.436,0.989
	c-0.489,0.312-0.984,0.618-1.492,0.9c-1.014,0.567-2.07,1.058-3.163,1.451c-0.545,0.199-1.103,0.364-1.665,0.505
	c-0.561,0.146-1.133,0.243-1.707,0.317c-0.574,0.075-1.154,0.097-1.732,0.09c-0.58-0.011-1.151-0.077-1.725-0.175
	c-0.564-0.115-1.126-0.262-1.67-0.463c-0.54-0.202-1.072-0.432-1.58-0.71c-0.509-0.277-1.006-0.575-1.477-0.913
	c-0.473-0.336-0.932-0.691-1.368-1.074c-0.874-0.762-1.682-1.602-2.42-2.497c-0.369-0.448-0.723-0.908-1.06-1.38
	c-0.334-0.475-0.658-0.96-0.945-1.459L79.437,75.524z"/>
</svg>
