<?xml version="1.0" encoding="utf-8"?>
<!-- Generator: Adobe Illustrator 16.0.0, SVG Export Plug-In . SVG Version: 6.00 Build 0)  -->
<!DOCTYPE svg PUBLIC "-//W3C//DTD SVG 1.1//EN" "http://www.w3.org/Graphics/SVG/1.1/DTD/svg11.dtd">
<svg version="1.1" id="Layer_1" xmlns="http://www.w3.org/2000/svg" xmlns:xlink="http://www.w3.org/1999/xlink" x="0px" y="0px"
	 width="220px" height="620px" viewBox="0 0 220 620" enable-background="new 0 0 220 620" xml:space="preserve">
<path fill="#F3A5A6" d="M119.256,76.562c-0.412,0.444-0.811,0.904-1.189,1.381c-0.408,0.514-0.807,1.039-1.166,1.59
	c0.453,0.348,0.928,0.67,1.41,0.977c0.492,0.309,0.992,0.604,1.506,0.877c0.203,0.111,0.412,0.217,0.621,0.32
	c-0.869-1.479-1.172-2.893-1.172-4.774C119.266,76.639,119.25,76.652,119.256,76.562"/>
<path fill="#FFFFFF" d="M138.65,74.514c-0.596-0.297-1.197-0.573-1.791-0.857c-1.191-0.551-2.359-1.125-3.588-1.531
	c-0.607-0.209-1.227-0.385-1.852-0.511c-0.625-0.131-1.258-0.214-1.889-0.236c-0.639-0.026-1.246,0.009-1.887,0.116
	c-0.633,0.096-1.254,0.27-1.861,0.482c-0.607,0.215-1.205,0.475-1.777,0.79c-0.572,0.312-1.129,0.661-1.664,1.043
	c-1.072,0.764-2.059,1.658-2.969,2.624c-0.039,0.042-0.078,0.086-0.117,0.129c-0.006,0.09,0.01,0.076,0.01,0.37
	c0,1.882,0.303,3.296,1.172,4.774c0.83,0.414,1.684,0.777,2.557,1.076c0.549,0.188,1.104,0.344,1.666,0.475
	c0.559,0.135,1.129,0.225,1.697,0.291c0.57,0.068,1.143,0.076,1.713,0.068c0.285-0.012,0.57-0.025,0.85-0.059
	c0.271-0.02,0.576-0.082,0.85-0.123c0.555-0.115,1.105-0.264,1.641-0.459c0.535-0.199,1.061-0.422,1.564-0.695
	c0.504-0.27,0.996-0.566,1.467-0.893c0.473-0.326,0.934-0.672,1.373-1.045c0.879-0.744,1.699-1.564,2.451-2.445
	c0.377-0.439,0.736-0.894,1.082-1.359c0.295-0.402,0.582-0.814,0.844-1.234l-0.646-0.338L138.65,74.514z"/>
<path fill="#020202" d="M140.498,75.197c-0.582,1.023-1.254,1.984-1.986,2.902c-0.732,0.916-1.535,1.781-2.414,2.568
	c-0.439,0.395-0.902,0.762-1.381,1.111c-0.477,0.352-0.986,0.654-1.506,0.941c-0.521,0.287-1.068,0.525-1.625,0.736
	c-0.561,0.205-1.141,0.35-1.725,0.467c-0.307,0.043-0.574,0.096-0.883,0.117c-0.303,0.035-0.6,0.041-0.896,0.051
	c-0.596,0.002-1.189-0.031-1.775-0.115c-0.588-0.086-1.17-0.193-1.738-0.352c-0.568-0.154-1.131-0.332-1.68-0.543
	c-1.1-0.418-2.156-0.934-3.168-1.525c-0.506-0.295-1.002-0.607-1.482-0.938c-0.48-0.334-0.951-0.68-1.4-1.055l-0.021-0.018
	l0.014-0.023c0.643-1.182,1.42-2.283,2.279-3.324c0.859-1.039,1.805-2.016,2.861-2.877c1.055-0.858,2.217-1.613,3.492-2.163
	c0.635-0.274,1.295-0.509,1.98-0.665c0.67-0.162,1.402-0.244,2.102-0.254c0.707-0.008,1.41,0.055,2.1,0.172
	c0.691,0.124,1.367,0.294,2.027,0.508c0.658,0.216,1.303,0.469,1.932,0.75c0.623,0.287,1.234,0.604,1.811,0.969
	c0.582,0.359,1.133,0.762,1.674,1.172l0.803,0.621l0.395,0.312c0.131,0.1,0.268,0.225,0.381,0.275
	c0.264,0.131,0.582,0.217,0.896,0.277c0.316,0.063,0.641,0.098,0.969,0.112c0.324,0.014,0.652,0.003,0.973-0.048
	c0.322-0.05,0.641-0.14,0.924-0.312l0.029,0.037c-0.254,0.233-0.58,0.376-0.908,0.474c-0.33,0.097-0.672,0.149-1.016,0.169
	c-0.344,0.021-0.689,0.008-1.033-0.03c-0.344-0.044-0.688-0.109-1.033-0.253l-0.922-0.479l-0.893-0.454
	c-0.598-0.297-1.199-0.572-1.793-0.857c-1.189-0.55-2.359-1.126-3.586-1.531c-0.609-0.208-1.229-0.385-1.854-0.51
	c-0.625-0.133-1.258-0.215-1.889-0.236c-0.637-0.027-1.244,0.008-1.887,0.115c-0.631,0.096-1.252,0.27-1.861,0.481
	c-0.607,0.215-1.203,0.477-1.777,0.791c-0.572,0.312-1.129,0.661-1.662,1.044c-1.072,0.764-2.059,1.656-2.971,2.623
	c-0.455,0.484-0.891,0.988-1.307,1.51c-0.412,0.521-0.816,1.053-1.182,1.613l-0.008-0.041c0.461,0.355,0.943,0.682,1.434,0.994
	c0.492,0.309,0.994,0.604,1.506,0.877c1.021,0.551,2.086,1.023,3.18,1.396c0.547,0.189,1.102,0.344,1.664,0.475
	c0.561,0.135,1.129,0.225,1.699,0.291c0.568,0.068,1.143,0.078,1.711,0.068c0.287-0.012,0.572-0.023,0.85-0.059
	c0.273-0.02,0.578-0.082,0.85-0.121c0.555-0.117,1.107-0.266,1.641-0.461c0.535-0.199,1.062-0.422,1.566-0.695
	c0.504-0.27,0.994-0.566,1.465-0.893c0.473-0.326,0.934-0.672,1.373-1.045c0.881-0.744,1.699-1.564,2.451-2.445
	c0.377-0.439,0.738-0.895,1.082-1.361c0.344-0.466,0.676-0.944,0.971-1.439L140.498,75.197z"/>
<path fill="#020202" d="M139.178,74.058c0,0,0.094,0.017,0.275,0.058c0.17,0.035,0.398,0.093,0.682,0.137
	c0.141,0.025,0.293,0.04,0.455,0.059c0.164,0.011,0.336,0.027,0.514,0.023c0.18,0.01,0.361-0.001,0.551-0.003
	c0.186-0.013,0.379-0.028,0.566-0.064c0.188-0.04,0.377-0.073,0.557-0.136c0.092-0.028,0.18-0.057,0.27-0.084
	c0.086-0.036,0.17-0.07,0.254-0.105s0.17-0.064,0.246-0.105c0.078-0.04,0.152-0.08,0.227-0.119s0.146-0.078,0.215-0.115
	c0.066-0.043,0.131-0.086,0.191-0.126c0.121-0.083,0.236-0.152,0.33-0.228c0.092-0.076,0.17-0.143,0.236-0.196
	c0.133-0.11,0.209-0.173,0.209-0.173l0.039,0.041c0,0-0.072,0.066-0.197,0.189c-0.062,0.059-0.137,0.132-0.225,0.216
	c-0.09,0.083-0.201,0.161-0.316,0.257c-0.059,0.047-0.121,0.096-0.184,0.146c-0.068,0.044-0.137,0.09-0.209,0.137
	s-0.148,0.095-0.223,0.145c-0.078,0.049-0.162,0.086-0.246,0.131c-0.084,0.043-0.17,0.088-0.256,0.132
	c-0.09,0.036-0.182,0.075-0.273,0.111c-0.184,0.081-0.379,0.136-0.572,0.194c-0.096,0.033-0.195,0.053-0.295,0.074
	s-0.197,0.053-0.297,0.068c-0.197,0.033-0.395,0.069-0.586,0.076c-0.191,0.018-0.377,0.012-0.553,0.012
	c-0.176-0.01-0.344-0.016-0.496-0.032c-0.305-0.027-0.557-0.073-0.725-0.105c-0.156-0.031-0.26-0.046-0.26-0.046L139.178,74.058z"/>
<path fill="#020202" d="M137.287,73.005c0,0,0.02,0.007,0.055,0.019c0.037,0.01,0.09,0.025,0.158,0.045
	c0.137,0.039,0.336,0.087,0.58,0.136c0.123,0.021,0.254,0.049,0.395,0.067c0.141,0.02,0.291,0.041,0.445,0.053
	c0.154,0.018,0.314,0.021,0.479,0.028c0.164,0.009,0.328-0.003,0.494-0.003c0.164-0.015,0.332-0.025,0.494-0.047
	c0.158-0.031,0.32-0.045,0.471-0.09c0.146-0.045,0.301-0.068,0.43-0.127c0.131-0.055,0.264-0.093,0.373-0.153
	c0.111-0.06,0.211-0.113,0.303-0.161c0.086-0.053,0.156-0.109,0.215-0.151c0.121-0.086,0.189-0.136,0.189-0.136l0.039,0.043
	c0,0-0.064,0.057-0.178,0.154c-0.057,0.049-0.123,0.114-0.207,0.176c-0.088,0.059-0.188,0.125-0.295,0.195
	c-0.109,0.076-0.24,0.126-0.373,0.197c-0.129,0.074-0.283,0.113-0.436,0.175s-0.318,0.091-0.484,0.142
	c-0.166,0.039-0.338,0.066-0.51,0.098c-0.172,0.016-0.348,0.047-0.518,0.053c-0.17,0.01-0.34,0.021-0.504,0.018
	c-0.164,0.003-0.322-0.004-0.471-0.011c-0.15-0.005-0.291-0.021-0.422-0.03c-0.262-0.028-0.479-0.057-0.631-0.086
	c-0.076-0.012-0.139-0.025-0.182-0.034c-0.039-0.009-0.062-0.013-0.062-0.013L137.287,73.005z"/>
<path fill="#F3A5A6" d="M100.486,76.562c0.412,0.444,0.812,0.904,1.189,1.381c0.409,0.514,0.808,1.039,1.167,1.59
	c-0.454,0.348-0.928,0.67-1.411,0.977c-0.491,0.309-0.992,0.604-1.504,0.877c-0.206,0.111-0.414,0.217-0.624,0.32
	c0.87-1.479,1.174-2.893,1.174-4.774C100.478,76.639,100.492,76.652,100.486,76.562"/>
<path fill="#FFFFFF" d="M80.199,74.967l-0.646,0.338c0.262,0.42,0.547,0.831,0.843,1.234c0.343,0.466,0.705,0.92,1.082,1.359
	c0.751,0.881,1.573,1.701,2.452,2.445c0.438,0.373,0.899,0.719,1.372,1.045c0.472,0.328,0.964,0.623,1.467,0.895
	c0.504,0.271,1.03,0.494,1.563,0.693c0.535,0.195,1.086,0.344,1.643,0.459c0.271,0.041,0.576,0.104,0.85,0.123
	c0.277,0.035,0.562,0.047,0.848,0.059c0.57,0.008,1.144,0,1.715-0.068c0.568-0.064,1.138-0.156,1.697-0.291
	c0.561-0.131,1.117-0.285,1.664-0.475c0.873-0.299,1.727-0.662,2.557-1.076c0.869-1.479,1.173-2.893,1.173-4.774
	c0-0.294,0.015-0.28,0.009-0.37c-0.039-0.043-0.076-0.087-0.115-0.129c-0.912-0.967-1.898-1.859-2.971-2.624
	c-0.535-0.382-1.09-0.732-1.664-1.044c-0.571-0.312-1.168-0.576-1.776-0.79c-0.608-0.212-1.229-0.386-1.86-0.481
	c-0.641-0.107-1.248-0.142-1.887-0.116c-0.633,0.022-1.264,0.105-1.889,0.237c-0.627,0.125-1.244,0.301-1.855,0.509
	c-1.225,0.407-2.393,0.981-3.586,1.534c-0.592,0.282-1.194,0.559-1.791,0.854L80.199,74.967z"/>
<path fill="#020202" d="M79.245,75.197c0.581,1.023,1.253,1.984,1.985,2.902c0.734,0.916,1.535,1.781,2.415,2.568
	c0.438,0.395,0.902,0.762,1.38,1.111c0.477,0.352,0.988,0.654,1.506,0.941c0.521,0.287,1.068,0.525,1.625,0.736
	c0.561,0.205,1.141,0.35,1.727,0.467c0.305,0.043,0.572,0.096,0.883,0.117c0.302,0.035,0.598,0.041,0.896,0.051
	c0.595,0.002,1.189-0.031,1.775-0.115c0.586-0.086,1.168-0.193,1.738-0.352c0.568-0.154,1.131-0.332,1.68-0.543
	c1.099-0.418,2.156-0.934,3.166-1.525c0.508-0.295,1.002-0.607,1.484-0.938c0.48-0.334,0.95-0.68,1.4-1.055l0.021-0.018
	l-0.013-0.023c-0.645-1.182-1.422-2.283-2.28-3.324c-0.859-1.039-1.806-2.016-2.861-2.877c-1.056-0.858-2.216-1.613-3.491-2.163
	c-0.637-0.274-1.297-0.509-1.981-0.665c-0.67-0.162-1.403-0.244-2.101-0.254c-0.707-0.008-1.411,0.055-2.102,0.172
	c-0.689,0.124-1.367,0.294-2.027,0.508c-0.658,0.216-1.302,0.469-1.93,0.75c-0.625,0.287-1.234,0.604-1.812,0.969
	c-0.581,0.359-1.132,0.762-1.672,1.172l-0.803,0.621l-0.396,0.312c-0.131,0.1-0.269,0.225-0.38,0.275
	c-0.266,0.131-0.582,0.217-0.898,0.277c-0.315,0.063-0.641,0.098-0.967,0.112c-0.324,0.014-0.652,0.003-0.975-0.048
	c-0.321-0.05-0.641-0.14-0.923-0.312l-0.028,0.037c0.252,0.233,0.578,0.376,0.906,0.474c0.331,0.097,0.674,0.149,1.017,0.169
	c0.344,0.021,0.688,0.008,1.033-0.03c0.345-0.044,0.687-0.109,1.032-0.253l0.922-0.479l0.894-0.454
	c0.597-0.297,1.199-0.572,1.792-0.857c1.191-0.55,2.36-1.126,3.586-1.531c0.61-0.208,1.229-0.385,1.854-0.51
	c0.624-0.133,1.257-0.215,1.889-0.236c0.638-0.027,1.245,0.008,1.888,0.115c0.629,0.096,1.25,0.27,1.859,0.481
	c0.607,0.215,1.205,0.477,1.777,0.791c0.573,0.312,1.129,0.661,1.664,1.044c1.071,0.764,2.058,1.656,2.969,2.623
	c0.455,0.484,0.892,0.988,1.307,1.51c0.414,0.521,0.818,1.053,1.182,1.613l0.008-0.041c-0.46,0.355-0.943,0.682-1.434,0.994
	c-0.492,0.309-0.993,0.604-1.504,0.877c-1.023,0.551-2.086,1.023-3.181,1.396c-0.546,0.189-1.103,0.344-1.665,0.475
	c-0.559,0.135-1.127,0.225-1.697,0.291c-0.57,0.068-1.143,0.078-1.713,0.068c-0.285-0.012-0.571-0.023-0.849-0.059
	c-0.272-0.02-0.577-0.082-0.849-0.121c-0.557-0.117-1.107-0.266-1.643-0.461c-0.535-0.199-1.061-0.422-1.564-0.695
	c-0.504-0.27-0.994-0.566-1.467-0.893s-0.934-0.672-1.373-1.045c-0.879-0.744-1.699-1.564-2.45-2.445
	c-0.378-0.439-0.739-0.895-1.083-1.361c-0.343-0.466-0.675-0.944-0.97-1.439L79.245,75.197z"/>
<path fill="#020202" d="M80.564,74.058c0,0-0.094,0.017-0.274,0.058c-0.169,0.035-0.399,0.093-0.682,0.137
	c-0.141,0.025-0.294,0.04-0.456,0.059c-0.162,0.011-0.335,0.027-0.512,0.023c-0.18,0.01-0.363-0.001-0.552-0.003
	c-0.186-0.013-0.378-0.028-0.566-0.064c-0.188-0.04-0.377-0.073-0.557-0.136c-0.091-0.028-0.18-0.057-0.27-0.084
	c-0.087-0.036-0.171-0.07-0.255-0.105c-0.082-0.035-0.168-0.064-0.246-0.105c-0.077-0.04-0.152-0.08-0.227-0.119
	c-0.073-0.039-0.145-0.078-0.215-0.115c-0.065-0.043-0.129-0.086-0.19-0.126c-0.12-0.083-0.236-0.152-0.329-0.228
	c-0.092-0.076-0.172-0.143-0.238-0.196c-0.132-0.11-0.207-0.173-0.207-0.173l-0.041,0.041c0,0,0.072,0.066,0.197,0.189
	c0.062,0.059,0.139,0.132,0.226,0.216c0.089,0.083,0.202,0.161,0.316,0.257c0.059,0.047,0.12,0.096,0.184,0.146
	c0.067,0.044,0.138,0.09,0.21,0.137s0.146,0.095,0.223,0.145c0.076,0.049,0.162,0.086,0.244,0.131
	c0.085,0.043,0.17,0.088,0.256,0.132c0.091,0.036,0.183,0.075,0.273,0.111c0.184,0.081,0.378,0.136,0.574,0.194
	c0.096,0.033,0.195,0.053,0.294,0.074s0.197,0.053,0.296,0.068c0.198,0.033,0.395,0.069,0.587,0.076
	c0.192,0.018,0.378,0.012,0.554,0.012c0.174-0.01,0.342-0.016,0.494-0.032c0.305-0.027,0.559-0.073,0.727-0.105
	c0.155-0.031,0.258-0.046,0.258-0.046L80.564,74.058z"/>
<path fill="#020202" d="M82.456,73.005c0,0-0.02,0.007-0.056,0.019c-0.036,0.01-0.088,0.025-0.155,0.045
	c-0.138,0.039-0.339,0.087-0.581,0.136c-0.123,0.021-0.254,0.049-0.396,0.067c-0.14,0.02-0.289,0.041-0.444,0.053
	c-0.155,0.018-0.314,0.021-0.478,0.028c-0.164,0.009-0.328-0.003-0.495-0.003c-0.165-0.015-0.331-0.025-0.493-0.047
	c-0.158-0.031-0.322-0.045-0.471-0.09c-0.147-0.045-0.301-0.068-0.43-0.127c-0.131-0.055-0.266-0.093-0.373-0.153
	c-0.111-0.06-0.213-0.113-0.303-0.161c-0.088-0.053-0.156-0.109-0.217-0.151c-0.121-0.086-0.189-0.136-0.189-0.136l-0.038,0.043
	c0,0,0.065,0.057,0.179,0.154c0.057,0.049,0.122,0.114,0.207,0.176c0.088,0.059,0.187,0.125,0.295,0.195
	c0.107,0.076,0.238,0.126,0.371,0.197c0.131,0.074,0.284,0.113,0.436,0.175c0.153,0.062,0.318,0.091,0.484,0.142
	c0.168,0.039,0.339,0.066,0.511,0.098c0.173,0.016,0.347,0.047,0.519,0.053c0.17,0.01,0.34,0.021,0.502,0.018
	c0.164,0.003,0.322-0.004,0.473-0.011c0.15-0.005,0.291-0.021,0.422-0.03c0.261-0.028,0.479-0.057,0.63-0.086
	c0.076-0.012,0.14-0.025,0.181-0.034s0.062-0.013,0.062-0.013L82.456,73.005z"/>
</svg>
