<?xml version="1.0" encoding="utf-8"?>
<!-- Generator: Adobe Illustrator 16.0.0, SVG Export Plug-In . SVG Version: 6.00 Build 0)  -->
<!DOCTYPE svg PUBLIC "-//W3C//DTD SVG 1.1//EN" "http://www.w3.org/Graphics/SVG/1.1/DTD/svg11.dtd">
<svg version="1.1" id="Layer_1" xmlns="http://www.w3.org/2000/svg" xmlns:xlink="http://www.w3.org/1999/xlink" x="0px" y="0px"
	 width="220px" height="620px" viewBox="0 0 220 620" enable-background="new 0 0 220 620" xml:space="preserve">
<path fill="none" stroke="#000000" stroke-miterlimit="10" d="M110.34,310.802c-1.635,10.012,0.858,24.746,2.724,47.78
	c1.864,23.034,6.54,47.014,7.527,54.671c0.986,7.656,0.835,28.934,0.919,39.833c-0.535,9.586,1.748,15.468,0.237,46.588
	c-1.514,31.208,4.669,45.685,3.766,53.824c-0.909,8.143-4.525,11.758-3.619,18.093c0.904,6.332,2.785,31.359,5.428,39.351
	c2.44,7.388,15.829,4.973,21.226,2.713c5.396-2.264,9.528-5.882,8.626-10.858c-0.908-4.975-17.812-15.059-17.188-48.393
	c0.163-8.643,8.141-40.709,10.405-51.113c2.262-10.404,1.355-23.521,1.355-33.924c0-10.403,3.166-9.499,2.263-20.884
	c-0.407-7.141,0.84-43.248,4.56-64.948c3.721-21.701,4.384-68.022,3.273-87.521c-1.113-19.502-2.156-21.535-4.439-27.287
	c-4.12-11.746-9.501-20.269-12.332-33.645c-2.251-10.615-2.304-33.927,1.64-37.582c10.643-10.539,8.717-21.51,8.807-27.633
	c0.859,2.732,1.258,3.62,3.35,9.656c5.916,25.004,19.055,41.282,24.151,57.453c1.128,3.253,1.668,7.15,1.672,10.55
	c-1.442,22.122,8.89,50.062,2.886,68.771c-5.931,18.473-8.829,23.225-8.924,32.745c-0.167,17.154,6.717-11.56,11.327-4.372
	c1.249,1.944-0.511,9.186-1.506,12.645c-0.779,2.715-7.876,19.095-4.264,19.095c4.431,0,10.679-20.109,13.214-26.868
	c2.535-6.758,0.771-21.173,0.771-27.09c0-5.911,2.258-32.707,3.173-40.056c2.668-21.341-0.325-42.847-0.006-48.368
	c0-4.529-4.45-14.6-4.45-14.6c-2.024-5.259-18.599-56.731-20.734-63.369c-4.563-14.439-8.873-16.685-12.204-19.175
	c-4.247-3.178-9.959-4.981-15.346-5.293c-7.947-0.46-17.707,0.257-23.472-4.128c-3.931-3.621-4.863-17.845-5.653-19.563
	c-1.264-2.761-4.433-4.513-8.103-5.136c0,0-0.745-0.191-1.114-0.152c-0.37-0.039-1.116,0.152-1.116,0.152
	c-3.668,0.623-6.839,2.375-8.104,5.136c-0.786,1.719-1.718,15.942-5.651,19.563c0,0-7.351,7.207-21.98,6.082
	c-5.889-0.454-9.413,0.416-14.898,3.366c-5.588,3.006-11.28,9.63-14.705,19.146c-2.136,6.64-19.046,60.836-20.737,63.371
	c-3.365,9.178-4.45,14.6-4.45,14.6c0.319,5.521-2.672,27.027-0.006,48.368c0.918,7.349,3.175,34.145,3.175,40.056
	c0,5.915-1.764,20.332,0.769,27.09c2.537,6.759,8.782,26.868,13.216,26.868c3.612,0-3.484-16.38-4.263-19.095
	c-0.994-3.459-2.755-10.7-1.508-12.645c4.614-7.188,11.494,21.526,11.326,4.372c-0.092-9.521-2.991-14.272-8.921-32.745
	c-6.004-18.708,4.328-46.648,2.885-68.771c-0.122-6.1,1.672-10.55,1.672-10.55c5.097-16.171,16.234-29.421,28.066-67.109
	c-0.091,14.397-0.091,18.489,8.801,27.633c3.944,3.655,3.894,26.967,1.645,37.582c-2.835,13.376-8.211,21.898-12.334,33.645
	c-1.808,4.865-3.03,7.785-4.142,27.285c-1.113,19.499-0.452,65.822,3.27,87.523c3.722,21.7,5.147,57.808,4.74,64.946
	c-0.905,11.387,2.262,10.482,2.262,20.884c0,10.404-0.905,23.521,1.356,33.924c2.262,10.406,10.243,42.473,10.404,51.111
	c0.622,33.338-16.282,43.422-17.188,48.395c-0.905,4.979,3.228,8.594,8.625,10.858c5.397,2.262,18.786,4.675,21.227-2.711
	c2.64-7.991,4.523-33.019,5.428-39.351c0.903-6.335-2.713-9.952-3.618-18.093c-0.905-8.14,5.277-22.616,3.761-53.824
	c-1.51-31.12,0.775-37.005,0.237-46.588c0.75-12.383-0.246-32.179,0.741-39.835c0.987-7.657,5.662-31.637,7.528-54.672
	c1.864-23.036,4.359-37.771,2.726-47.781"/>
</svg>
