<?xml version="1.0" encoding="utf-8"?>
<!-- Generator: Adobe Illustrator 16.0.0, SVG Export Plug-In . SVG Version: 6.00 Build 0)  -->
<!DOCTYPE svg PUBLIC "-//W3C//DTD SVG 1.1//EN" "http://www.w3.org/Graphics/SVG/1.1/DTD/svg11.dtd">
<svg version="1.1" id="Layer_1" xmlns="http://www.w3.org/2000/svg" xmlns:xlink="http://www.w3.org/1999/xlink" x="0px" y="0px"
	 width="220px" height="620px" viewBox="0 0 220 620" enable-background="new 0 0 220 620" xml:space="preserve">
<path fill="none" stroke="#000000" stroke-miterlimit="10" d="M109.747,313.426c1.922,9.85-1.086,24.332-3.362,46.976
	c-2.278,22.646-7.906,46.211-9.103,53.736c-1.196,7.527-0.604,30.773-1.916,39.92c0.616,9.424-2.119,15.205-0.394,45.812
	c1.731,30.691-5.673,44.906-4.614,52.914c1.061,8.008,5.365,11.578,4.271,17.803c-1.092,6.227-3.396,30.83-6.564,38.68
	c-2.928,7.258-18.885,4.848-25.311,2.609c-6.428-2.242-11.348-5.814-10.257-10.703s21.267-14.76,20.604-47.541
	c-0.172-8.496-9.61-40.051-12.281-50.287c-2.67-10.235-1.561-23.13-1.536-33.362c0.025-10.229-3.039-13.687-0.057-29.006
	c0.502-7.02-2.763-34.818-7.147-56.166c-4.383-21.35-5.063-66.901-3.691-86.071c1.372-19.173,4-29.639,4.502-31.085
	c1.616-7.94,3.35-12.069,12.834-37.506c3.729-9.997,0.224-13.91-3.88-17.243c-10.646-8.652-8.703-16.938-9.364-25.624
	c-5.819,24.587-18.739,40.593-23.75,56.496c-0.794,2.333-1.604,7.854-1.643,10.374c1.418,21.752-8.742,49.227-2.837,67.623
	c5.832,18.166,8.681,22.838,8.771,32.201c0.167,16.868-6.6-11.369-11.136-4.301c-1.228,1.912,0.504,9.033,1.481,12.435
	c0.766,2.67,7.745,18.777,4.193,18.777c-4.359,0-10.502-19.773-12.996-26.421c-2.491-6.645-0.757-20.82-0.757-26.637
	c0-5.815-2.218-32.163-3.121-39.391c-2.622-20.983,0.319-42.132,0.006-47.561c0.347-3.062,2.618-9.857,4.375-14.357
	c1.663-2.493,18.291-55.785,20.391-62.314c3.909-8.977,5.651-16.832,12.993-22.138c8.328-6.019,14.385,0,34.518-8.488
	c3.865-3.559,11.603-8.968,14.428-20.261c3.02-12.071,25.006-10.347,27.594,0c2.318,9.286,2.445,15.551,8.17,18.869
	c14.719,8.531,25.811,2.999,32.555,5.587c11.658,4.471,14.264,19.019,16.609,26.431c2.1,6.529,18.727,59.821,20.393,62.314
	c2.348,6.198,3.457,9.023,4.373,14.357c-0.314,5.429,2.633,26.575,0.006,47.561c-0.902,7.228-3.121,33.575-3.121,39.39
	s1.734,19.99-0.758,26.637s-8.633,26.422-12.992,26.422c-3.553,0,3.424-16.107,4.189-18.777c0.979-3.401,2.711-10.522,1.484-12.436
	c-4.535-7.068-11.305,21.17-11.139,4.302c0.092-9.365,2.943-14.037,8.771-32.203c5.908-18.396-4.254-45.869-2.836-67.622
	c0.096-6.941-1.645-10.373-1.645-10.373c-5.008-15.903-17.93-31.909-23.748-56.496c0.043-1.568-0.645-3.767-0.645-3.767
	c-0.572,8.475,2.527,16.825-9.061,29.391c-4.105,3.333-7.609,7.246-3.881,17.243c9.482,25.437,11.805,27.468,13.348,42.482
	c0,0,1.734,6.936,3.105,26.108c1.371,19.172,0.689,64.724-3.693,86.071c-4.385,21.35-7.648,49.146-7.145,56.166
	c2.914,13.819-0.188,18.777-0.162,29.006c0.023,10.232,1.133,23.129-1.537,33.362c-2.67,10.236-12.109,41.791-12.281,50.287
	c-0.662,32.783,19.512,42.65,20.605,47.541c1.09,4.889-3.83,8.461-10.256,10.703c-6.428,2.238-22.385,4.648-25.312-2.609
	c-3.166-7.85-5.473-32.455-6.564-38.68c-1.092-6.227,3.213-9.795,4.273-17.803c1.057-8.006-6.346-22.223-4.615-52.914
	c1.725-30.608-1.01-36.39-0.395-45.812c-1.312-9.146-0.613-32.391-1.812-39.92c-1.193-7.525-6.824-31.088-9.102-53.736
	c-2.277-22.644-5.285-37.128-3.361-46.976"/>
</svg>
