<?xml version="1.0" encoding="utf-8"?>
<!-- Generator: Adobe Illustrator 16.0.0, SVG Export Plug-In . SVG Version: 6.00 Build 0)  -->
<!DOCTYPE svg PUBLIC "-//W3C//DTD SVG 1.1//EN" "http://www.w3.org/Graphics/SVG/1.1/DTD/svg11.dtd">
<svg version="1.1" id="Layer_1" xmlns="http://www.w3.org/2000/svg" xmlns:xlink="http://www.w3.org/1999/xlink" x="0px" y="0px"
	 width="220px" height="620px" viewBox="0 0 220 620" enable-background="new 0 0 220 620" xml:space="preserve">
<path fill="none" stroke="#000000" stroke-miterlimit="10" d="M119.13,451.465c-1.172-9.281-1.076-29.463-2.148-37.102
	c-1.07-7.635-6.138-31.549-8.158-54.521c-2.022-22.974-4.726-37.668-2.956-47.654c3.214-4.386,7.919-6.251,8.419-1.681
	c1.768,9.985-0.934,24.681-2.959,47.655c-2.021,22.974-7.087,46.886-8.157,54.521c-1.071,7.639-1.051,29.5-2.223,38.781L100.924,451
	c0.581,9.559-1.682,19.029-0.045,50.067c1.642,31.125-5.059,45.559-4.078,53.68c0.98,8.119,4.902,11.729,3.922,18.043
	s-3.021,31.275-5.885,39.244c-2.646,7.369-17.161,4.963-23.01,2.707c-5.851-2.258-10.333-5.865-9.351-10.826
	c0.981-4.963,19.306-15.023,18.632-48.268c-0.176-8.615-8.828-40.598-11.278-50.975c-2.451-10.374-1.471-23.456-1.471-33.831
	c0-10.377-1.844-10.78-0.864-22.136c1.068-4.637,1.086-7.433,1.127-8.71c0.442-7.119-2.59-35.305-6.623-56.947
	c-4.034-21.642-4.753-67.839-3.547-87.287c1.206-19.448,3.888-22.896,3.15-25.144c4.11-11.715,5.804-20.638,8.629-33.979
	c2.244-10.586,5.282-27.773,1.348-31.419c-11.789-10.924-9.807-18.102-10.908-30.206c0,0-1.119,1.871-1.818,6.633
	c-5.903,24.937-19.005,41.169-24.088,57.298c-0.313,1.535-1.806,6.319-1.667,10.521c1.438,22.064-8.866,49.929-2.877,68.586
	c5.915,18.423,8.805,23.162,8.896,32.658c0.17,17.105-6.693-11.529-11.294-4.362c-1.244,1.939,0.512,9.163,1.502,12.61
	c0.778,2.709,7.855,19.045,4.253,19.045c-4.42,0-10.652-20.056-13.181-26.797c-2.526-6.739-0.768-21.116-0.768-27.014
	s-2.25-32.619-3.166-39.95c-2.659-21.282,0.324-42.73,0.006-48.237c0.85-6.713,2.677-10.057,4.437-14.561
	c1.687-2.528,18.551-59.691,20.682-66.312c1.646-4.927,8.528-18.673,17.854-20.221c10.091-3.134,17.514,2.049,34.317-5.175
	c3.925-3.61,4.854-17.797,5.639-19.512c1.511-3.3,5.746-5.178,10.306-5.371c4.563,0.193,8.796,2.071,10.308,5.371
	c0.785,1.715,0.824,17.226,5.637,19.512c16.828,7.991,26.084,1.465,34.318,4.152c8.232,2.688,13.455,9.666,18.221,24.741
	c2.133,6.621,18.996,60.672,20.684,63.198c3.926,10.857,4.438,14.563,4.438,14.563c-0.318,5.505,2.666,26.954,0.006,48.236
	c-0.916,7.329-3.164,34.052-3.164,39.948c0,5.899,1.76,20.275-0.771,27.015c-2.525,6.741-8.758,26.795-13.178,26.795
	c-3.604,0,3.475-16.334,4.252-19.043c0.992-3.448,2.748-10.671,1.502-12.61c-4.6-7.166-11.463,21.47-11.295,4.361
	c0.094-9.496,2.982-14.234,8.896-32.658c5.99-18.657-4.316-46.521-2.877-68.584c0.133-5.162-1.666-10.521-1.666-10.521
	c-5.082-16.129-18.188-32.362-24.088-57.3c-1.996-7.304-2.459-8.465-2.459-8.465c-0.439,9.465,1.152,20.731-10.631,31.658
	c-3.934,3.645-0.896,20.832,1.346,31.418c2.826,13.342,3.096,18.02,7.203,29.733c0.689,1.463,4.104,11.622,5.311,31.07
	c1.205,19.447,0.484,65.645-3.549,87.285c-4.033,21.645-7.064,49.83-6.623,56.947c0.041,1.422,0.353,4.651,1.22,8.778
	c0.98,11.354-1.099,10.011-1.099,20.388s0.98,23.457-1.471,33.833c-2.449,10.375-11.102,42.357-11.277,50.975
	c-0.674,33.242,17.65,43.305,18.633,48.266c0.98,4.961-3.502,8.57-9.352,10.826c-5.848,2.256-20.363,4.662-23.01-2.705
	c-2.863-7.971-4.904-32.932-5.885-39.244c-0.979-6.314,2.943-9.924,3.922-18.043c0.979-8.121-5.721-22.557-4.078-53.682
	C120.765,470.031,118.548,461.021,119.13,451.465"/>
</svg>
