<?xml version="1.0" encoding="utf-8"?>
<!-- Generator: Adobe Illustrator 16.0.0, SVG Export Plug-In . SVG Version: 6.00 Build 0)  -->
<!DOCTYPE svg PUBLIC "-//W3C//DTD SVG 1.1//EN" "http://www.w3.org/Graphics/SVG/1.1/DTD/svg11.dtd">
<svg version="1.1" id="Layer_1" xmlns="http://www.w3.org/2000/svg" xmlns:xlink="http://www.w3.org/1999/xlink" x="0px" y="0px"
	 width="220px" height="620px" viewBox="0 0 220 620" enable-background="new 0 0 220 620" xml:space="preserve">
<path fill="none" stroke="#000000" stroke-width="0.75" stroke-miterlimit="10" d="M62.505,192.434
	c-1.012,0.352,0.428-5.676-0.783-10.365c-1.912-7.416-1.98-17.482,2.803-17.279C75.441,165.256,68.253,190.436,62.505,192.434"/>
<path fill="none" stroke="#000000" stroke-width="0.75" stroke-miterlimit="10" d="M65.017,133.506
	c-2.436-2.301,12.857-19.666,19.822-13.252C91.625,126.502,77.736,145.516,65.017,133.506"/>
<path fill="none" stroke="#000000" stroke-width="0.75" stroke-miterlimit="10" d="M72.634,129.08
	c2.627-0.865-3.863-23.07-11.324-20.742C54.042,110.605,58.916,133.594,72.634,129.08"/>
<path fill="none" stroke="#000000" stroke-width="0.75" stroke-miterlimit="10" d="M63.339,147.77
	c-2.006-1.902,13.354-19.207,19.104-13.914C88.042,139.014,73.812,157.715,63.339,147.77"/>
<path fill="none" stroke="#000000" stroke-width="0.75" stroke-miterlimit="10" d="M71.792,144.154
	c2.627-0.865-3.863-23.072-11.324-20.742C53.201,125.68,58.074,148.668,71.792,144.154"/>
<path fill="none" stroke="#000000" stroke-width="0.75" stroke-miterlimit="10" d="M64.214,160.176
	c-2.238-1.627,10.729-20.789,17.119-16.291C87.562,148.268,75.896,168.666,64.214,160.176"/>
<path fill="none" stroke="#000000" stroke-width="0.75" stroke-miterlimit="10" d="M74.458,156.324
	c2.494-1.201-6.842-22.369-13.934-19.086C53.615,140.436,61.449,162.592,74.458,156.324"/>
<path fill="none" stroke="#000000" stroke-width="0.75" stroke-miterlimit="10" d="M61.888,173.855
	c-2.238-1.625,10.729-20.787,17.119-16.291C85.236,161.947,73.57,182.346,61.888,173.855"/>
<path fill="none" stroke="#000000" stroke-width="0.75" stroke-miterlimit="10" d="M75.343,169.898
	c2.492-1.199-6.844-22.369-13.936-19.086C54.498,154.012,62.332,176.166,75.343,169.898"/>
<path fill="none" stroke="#000000" stroke-width="0.75" stroke-miterlimit="10" d="M73.72,125.594
	c-20.557,0.494-26.969-98.852,31.1-100.762C161.393,22.971,181.039,123.016,73.72,125.594"/>
</svg>
