<?xml version="1.0" encoding="utf-8"?>
<!-- Generator: Adobe Illustrator 16.0.0, SVG Export Plug-In . SVG Version: 6.00 Build 0)  -->
<!DOCTYPE svg PUBLIC "-//W3C//DTD SVG 1.1//EN" "http://www.w3.org/Graphics/SVG/1.1/DTD/svg11.dtd">
<svg version="1.1" id="Layer_1" xmlns="http://www.w3.org/2000/svg" xmlns:xlink="http://www.w3.org/1999/xlink" x="0px" y="0px"
	 width="220px" height="620px" viewBox="0 0 220 620" enable-background="new 0 0 220 620" xml:space="preserve">
<path fill="none" stroke="#000000" stroke-miterlimit="10" d="M157.076,83.831c-0.059-0.054-0.125-0.093-0.186-0.142
	c4.168-3.998,5.92-10.249,2.561-13.342c-0.346-0.32-0.719-0.564-1.105-0.77c1.398-5.443,0.283-11.338-3.301-12.152
	c-0.059-0.014-0.115-0.013-0.172-0.023c0.916-4.119,0.297-8.093-2.17-9.387c0.998-0.815,1.816-1.66,2.402-2.519
	c0.602-0.888-1.4-0.921-4.137-1.169c0.049-3.443-1.236-6.482-3.992-7.503c-0.605-0.224-1.201-0.319-1.791-0.323
	c-1.785-5.006-6.91-8.754-11.254-9.082c-3.256-4.323-9.449-6.332-13.732-5.225c-1.928-3.701-9.902-3.289-15.338,0.248
	c-2.955-1.625-8.475,0.146-12.398,3.648c-0.018-0.014-0.031-0.029-0.051-0.041c-3.332-2.127-8.838,1.901-11.584,7.299
	c-4.062-1.372-9.56,4.846-10.763,11.359c-2.616,1.135-5.047,4.677-6.157,8.69c-2.851-0.041-4.952-0.257-4.437,0.714
	c0.766,1.438,2.102,2.902,3.82,4.31c0,0.009,0,0.019,0,0.027c-0.137,0.026-0.274,0.044-0.414,0.087
	c-4.121,1.287-4.297,9.295-1.15,15.074c-3.743,1.574-3.896,9.077-0.982,14.676c-1.33,1.705-1.496,4.672-0.719,7.767
	c-2.072,3.103-4.391,5.389-3.071,5.561c1.481,0.191,3.265,0.006,5.204-0.477c0.006,0.008,0.011,0.016,0.017,0.023
	c-3.133,2.635-1.825,10.494,2.271,15.396c-0.109,0.463-0.211,0.924-0.293,1.381c-1.019,5.562-7.642,10.861-5.607,11.127
	c2.738,0.354,6.498-0.578,10.389-2.301c1.092,6.824,7.113,15.117,15.413,11.77c-1.421,1.902-2.419,3.172-1.45,3.299
	c3.078,0.4,7.445-0.824,11.839-2.973c2.145,0.711,4.586,0.643,7.254-0.643c0.242-0.117,0.369-0.43,0.398-0.889
	c2.572,2.283,5.926,3.398,9.791,1.982c3.705,2.09,7.34,1.393,10.334-0.623c3.248,1.732,6.441,1.695,9.219,0.619
	c3.363,1.328,6.543,2.004,8.939,1.693c1.025-0.135-0.15-1.549-1.697-3.631c7.02,2.186,13.402-3.342,15.318-8.895
	c2.111,0.566,4.053,0.797,5.646,0.59c2.037-0.266-4.588-5.564-5.605-11.127c-0.082-0.443-0.18-0.889-0.285-1.338
	c1.754-3.758,1.943-7.639-0.379-9.273c-0.021-0.016-0.047-0.025-0.072-0.041c3.627-4.193,5.305-10.097,3.098-12.826
	c1.447,0.27,2.787,0.352,3.938,0.201c1.248-0.163-0.762-2.221-2.736-5.07C158.621,87.265,158.479,85.119,157.076,83.831"/>
</svg>
