<?xml version="1.0" encoding="utf-8"?>
<!-- Generator: Adobe Illustrator 16.0.0, SVG Export Plug-In . SVG Version: 6.00 Build 0)  -->
<!DOCTYPE svg PUBLIC "-//W3C//DTD SVG 1.1//EN" "http://www.w3.org/Graphics/SVG/1.1/DTD/svg11.dtd">
<svg version="1.1" id="Layer_1" xmlns="http://www.w3.org/2000/svg" xmlns:xlink="http://www.w3.org/1999/xlink" x="0px" y="0px"
	 width="220px" height="620px" viewBox="0 0 220 620" enable-background="new 0 0 220 620" xml:space="preserve">
<path fill="none" stroke="#000000" stroke-miterlimit="10" d="M160.289,84.328c0-2.354-0.934-4.475-2.432-5.984
	c0.062-0.232,0.121-0.469,0.166-0.709c1.938-1.512,3.195-3.926,3.195-6.656c0-2.441-1.008-4.629-2.604-6.146
	c1.598-1.623,1.809-4.283,0.379-6.299c-0.238-0.334-0.512-0.629-0.803-0.887c2.369-2.717,2.6-6.916,0.32-10.131
	c-1.361-1.918-3.352-3.107-5.445-3.471c-0.26-0.719-0.615-1.416-1.078-2.07c-1.314-1.855-3.217-3.029-5.232-3.438
	c0.281-2.037-0.197-4.219-1.512-6.074c-2.463-3.475-6.984-4.567-10.465-2.676c-1.822-1.726-4.262-2.519-6.6-2.246
	c-0.098-0.16-0.193-0.321-0.301-0.476c-2.65-3.737-7.68-4.724-11.232-2.204c-0.496,0.352-0.932,0.756-1.314,1.196
	c-1.971-2.044-4.756-2.933-7.357-2.462c-2.689-3.543-7.576-4.443-11.055-1.977c-0.842,0.596-1.52,1.34-2.037,2.171
	c-2.232-0.646-4.674-0.335-6.656,1.071c-1.666,1.182-2.705,2.928-3.072,4.83c-3.24-1.879-7.564-1.153-10.23,1.925
	c-1.488,1.718-2.178,3.845-2.094,5.898c-2.047,0.211-4.053,1.195-5.541,2.914c-1.541,1.777-2.221,3.992-2.078,6.113
	c-0.635,0.424-1.227,0.934-1.754,1.541c-1.859,2.145-2.471,4.928-1.887,7.412c-0.748,1.311-0.838,2.959-0.195,4.43
	c-1.588,1.518-2.592,3.699-2.592,6.133c0,2.273,0.871,4.33,2.279,5.828c-1.408,1.5-2.279,3.557-2.279,5.83
	c0,2.354,0.936,4.473,2.434,5.982c-0.203,0.734-0.316,1.51-0.316,2.312c0,2.348,0.93,4.463,2.422,5.971
	c-1.732,1.607-1.998,4.367-0.525,6.443c0.729,1.029,1.76,1.707,2.867,2c-0.617,1.51-0.453,3.334,0.596,4.812
	c0.078,0.111,0.164,0.215,0.248,0.318c-0.711,1.543-0.574,3.463,0.52,5.006c0.785,1.105,1.918,1.811,3.121,2.062
	c-0.984,2.49-0.701,5.482,1.021,7.914c1.328,1.873,3.256,3.055,5.293,3.449c-0.674,1.533-0.529,3.416,0.549,4.934
	c1.066,1.506,2.775,2.266,4.43,2.152c0.145,0.662,0.418,1.314,0.84,1.91c1.322,1.863,3.625,2.584,5.594,1.918
	c0.076,0.877,0.379,1.756,0.934,2.537c1.596,2.25,4.623,2.844,6.764,1.326c0.107-0.074,0.207-0.158,0.307-0.24
	c0.057,0.088,0.111,0.18,0.174,0.27c1.438,2.027,4.039,2.705,6.105,1.707c2.531,2.816,6.561,3.611,9.748,1.926
	c0.096,0.174,0.199,0.348,0.318,0.516c1.594,2.25,4.623,2.844,6.764,1.326c0.797-0.564,1.357-1.346,1.664-2.213
	c1.666,1.832,4.389,2.23,6.361,0.832c0.459-0.326,0.836-0.725,1.135-1.168c1.674,1.664,4.273,1.984,6.174,0.637
	c1.137-0.803,1.789-2.043,1.918-3.363c0.984,0.035,1.975-0.23,2.826-0.832c1.303-0.924,1.971-2.418,1.939-3.955
	c0.947,0.012,1.895-0.258,2.713-0.836c1.076-0.766,1.723-1.918,1.896-3.164c1.092,0.115,2.209-0.141,3.156-0.811
	c2.02-1.434,2.523-4.232,1.232-6.436c0.115-0.074,0.232-0.139,0.346-0.219c2.697-1.912,3.764-5.293,2.967-8.445
	c2.012-1.551,2.4-4.51,0.842-6.707c-0.111-0.158-0.23-0.305-0.355-0.445c0.441-0.199,0.869-0.436,1.279-0.725
	c2.605-1.848,3.688-5.068,3.037-8.129c2.039-1.543,2.439-4.523,0.873-6.732c-0.34-0.477-0.744-0.875-1.189-1.197
	C159.332,88.846,160.289,86.707,160.289,84.328"/>
</svg>
