<?xml version="1.0" encoding="utf-8"?>
<!-- Generator: Adobe Illustrator 16.0.0, SVG Export Plug-In . SVG Version: 6.00 Build 0)  -->
<!DOCTYPE svg PUBLIC "-//W3C//DTD SVG 1.1//EN" "http://www.w3.org/Graphics/SVG/1.1/DTD/svg11.dtd">
<svg version="1.1" id="Layer_1" xmlns="http://www.w3.org/2000/svg" xmlns:xlink="http://www.w3.org/1999/xlink" x="0px" y="0px"
	 width="220px" height="620px" viewBox="0 0 220 620" enable-background="new 0 0 220 620" xml:space="preserve">
<path fill="#598EAE" d="M133.413,77.793c0,2.477-2.01,4.486-4.487,4.486c-2.479,0-4.488-2.01-4.488-4.486
	c0-2.479,2.01-4.488,4.488-4.488C131.403,73.305,133.413,75.315,133.413,77.793"/>
<path fill="#231F20" d="M128.925,82.387c-2.533,0-4.595-2.062-4.595-4.594c0-2.533,2.062-4.596,4.595-4.596s4.594,2.062,4.594,4.596
	C133.519,80.325,131.458,82.387,128.925,82.387 M128.925,73.413c-2.415,0-4.38,1.965-4.38,4.381c0,2.414,1.965,4.379,4.38,4.379
	c2.416,0,4.381-1.965,4.381-4.379C133.306,75.377,131.341,73.413,128.925,73.413"/>
<path fill="#74B9DC" d="M128.925,82.061l-0.449-2.209l-1.308,1.836l0.486-2.201l-1.941,1.145l1.341-1.811l-2.24,0.254l1.962-1.109
	l-2.149-0.678l2.244-0.217l-1.688-1.492l2.138,0.715l-0.936-2.051l1.661,1.521l-0.019-2.252l0.898,2.066l0.898-2.066l-0.019,2.252
	l1.661-1.521l-0.935,2.051l2.138-0.715l-1.688,1.492l2.243,0.217l-2.149,0.678l1.962,1.109l-2.239-0.254l1.341,1.811l-1.942-1.145
	l0.487,2.201l-1.308-1.836L128.925,82.061z M128.587,79.329l0.338,1.658l0.338-1.658l0.983,1.377l-0.366-1.652l1.459,0.859
	l-1.008-1.361l1.683,0.191l-1.474-0.834l1.614-0.508l-1.686-0.162l1.27-1.123l-1.606,0.537l0.701-1.541l-1.247,1.145l0.015-1.693
	l-0.676,1.553l-0.675-1.553l0.015,1.693l-1.248-1.145l0.701,1.541l-1.605-0.537l1.269,1.123l-1.685,0.162l1.614,0.508l-1.475,0.834
	l1.683-0.191l-1.007,1.361l1.459-0.859l-0.366,1.652L128.587,79.329z"/>
<path fill="#020202" d="M131.153,77.793c0,1.23-0.998,2.227-2.228,2.227c-1.231,0-2.229-0.996-2.229-2.227
	c0-1.232,0.998-2.229,2.229-2.229C130.155,75.565,131.153,76.561,131.153,77.793"/>
<g opacity="0.74">
	<g>
		<defs>
			<rect id="SVGID_1_" x="128.925" y="75.346" width="2.436" height="2.434"/>
		</defs>
		<clipPath id="SVGID_2_">
			<use xlink:href="#SVGID_1_"  overflow="visible"/>
		</clipPath>
		<path clip-path="url(#SVGID_2_)" fill="#FFFFFF" d="M131.36,76.563c0,0.672-0.545,1.217-1.218,1.217
			c-0.672,0-1.218-0.545-1.218-1.217s0.546-1.217,1.218-1.217C130.815,75.346,131.36,75.891,131.36,76.563"/>
	</g>
</g>
<g opacity="0.74">
	<g>
		<defs>
			<rect id="SVGID_3_" x="126.721" y="78.811" width="1.175" height="1.176"/>
		</defs>
		<clipPath id="SVGID_4_">
			<use xlink:href="#SVGID_3_"  overflow="visible"/>
		</clipPath>
		<path clip-path="url(#SVGID_4_)" fill="#FFFFFF" d="M127.896,79.397c0,0.326-0.263,0.588-0.587,0.588
			c-0.325,0-0.588-0.262-0.588-0.588c0-0.324,0.263-0.586,0.588-0.586C127.633,78.811,127.896,79.073,127.896,79.397"/>
	</g>
</g>
<path fill="#598EAE" d="M86.611,77.793c0,2.477,2.01,4.486,4.488,4.486s4.486-2.01,4.486-4.486c0-2.479-2.008-4.488-4.486-4.488
	S86.611,75.315,86.611,77.793"/>
<path fill="#231F20" d="M86.505,77.793c0-2.533,2.062-4.596,4.595-4.596s4.594,2.062,4.594,4.596c0,2.531-2.061,4.594-4.594,4.594
	S86.505,80.325,86.505,77.793 M86.719,77.793c0,2.414,1.965,4.379,4.381,4.379c2.414,0,4.381-1.965,4.381-4.379
	c0-2.416-1.967-4.381-4.381-4.381C88.684,73.413,86.719,75.377,86.719,77.793"/>
<path fill="#74B9DC" d="M90.65,79.854l-1.31,1.834l0.488-2.201l-1.942,1.145l1.34-1.811l-2.238,0.254l1.961-1.109l-2.148-0.678
	l2.243-0.215l-1.688-1.494l2.139,0.715l-0.936-2.051l1.662,1.521L90.2,73.512l0.899,2.066l0.898-2.066l-0.02,2.252l1.661-1.521
	l-0.935,2.051l2.137-0.715l-1.688,1.494l2.244,0.215l-2.15,0.678l1.962,1.109l-2.239-0.254l1.341,1.811l-1.942-1.145l0.488,2.201
	l-1.309-1.834L91.1,82.061L90.65,79.854z M92.42,80.706l-0.365-1.652l1.458,0.859l-1.007-1.361l1.683,0.191l-1.474-0.834
	l1.613-0.508l-1.684-0.162l1.268-1.123l-1.606,0.537l0.702-1.541l-1.248,1.145l0.015-1.693L91.1,76.116l-0.676-1.553l0.015,1.693
	l-1.247-1.145l0.701,1.541l-1.605-0.537l1.268,1.123l-1.685,0.162l1.614,0.508l-1.473,0.834l1.682-0.191l-1.008,1.361l1.459-0.859
	l-0.366,1.652l0.983-1.377l0.338,1.658l0.338-1.658L92.42,80.706z"/>
<path fill="#020202" d="M88.871,77.793c0,1.23,0.998,2.227,2.229,2.227s2.229-0.996,2.229-2.227c0-1.232-0.998-2.229-2.229-2.229
	S88.871,76.561,88.871,77.793"/>
<g opacity="0.74">
	<g>
		<defs>
			<rect id="SVGID_5_" x="88.664" y="75.346" width="2.436" height="2.434"/>
		</defs>
		<clipPath id="SVGID_6_">
			<use xlink:href="#SVGID_5_"  overflow="visible"/>
		</clipPath>
		<path clip-path="url(#SVGID_6_)" fill="#FFFFFF" d="M88.664,76.563c0,0.672,0.545,1.217,1.219,1.217
			c0.671,0,1.217-0.545,1.217-1.217s-0.546-1.217-1.217-1.217C89.209,75.346,88.664,75.891,88.664,76.563"/>
	</g>
</g>
<g opacity="0.74">
	<g>
		<defs>
			<rect id="SVGID_7_" x="92.129" y="78.811" width="1.176" height="1.176"/>
		</defs>
		<clipPath id="SVGID_8_">
			<use xlink:href="#SVGID_7_"  overflow="visible"/>
		</clipPath>
		<path clip-path="url(#SVGID_8_)" fill="#FFFFFF" d="M92.129,79.397c0,0.326,0.264,0.588,0.588,0.588s0.586-0.262,0.586-0.588
			c0-0.324-0.262-0.586-0.586-0.586S92.129,79.073,92.129,79.397"/>
	</g>
</g>
</svg>
