<?xml version="1.0" encoding="utf-8"?>
<!-- Generator: Adobe Illustrator 16.0.0, SVG Export Plug-In . SVG Version: 6.00 Build 0)  -->
<!DOCTYPE svg PUBLIC "-//W3C//DTD SVG 1.1//EN" "http://www.w3.org/Graphics/SVG/1.1/DTD/svg11.dtd">
<svg version="1.1" id="Layer_1" xmlns="http://www.w3.org/2000/svg" xmlns:xlink="http://www.w3.org/1999/xlink" x="0px" y="0px"
	 width="220px" height="620px" viewBox="0 0 220 620" enable-background="new 0 0 220 620" xml:space="preserve">
<path fill="#5A4035" d="M132.797,77.643c0,2.364-1.916,4.282-4.281,4.282c-2.363,0-4.279-1.918-4.279-4.282s1.916-4.28,4.279-4.28
	C130.881,73.363,132.797,75.279,132.797,77.643"/>
<path fill="#231F20" d="M128.516,82.026c-2.418,0-4.383-1.966-4.383-4.383s1.965-4.383,4.383-4.383s4.383,1.966,4.383,4.383
	S130.934,82.026,128.516,82.026 M128.516,73.464c-2.305,0-4.178,1.875-4.178,4.179c0,2.305,1.873,4.179,4.178,4.179
	s4.178-1.874,4.178-4.179C132.693,75.339,130.82,73.464,128.516,73.464"/>
<path fill="#6E5142" d="M128.516,81.716l-0.43-2.107l-1.248,1.751l0.467-2.099l-1.852,1.091l1.277-1.729l-2.137,0.243l1.871-1.06
	l-2.051-0.646l2.141-0.206l-1.609-1.425l2.039,0.683l-0.893-1.957l1.586,1.453l-0.02-2.149l0.857,1.971l0.857-1.971l-0.018,2.149
	l1.584-1.453l-0.891,1.957l2.037-0.683l-1.609,1.425l2.141,0.206l-2.051,0.646l1.871,1.06l-2.137-0.243l1.279,1.729l-1.852-1.091
	l0.465,2.099l-1.248-1.751L128.516,81.716z M128.193,79.107l0.322,1.584l0.322-1.584l0.938,1.316l-0.348-1.577l1.391,0.819
	l-0.961-1.299l1.605,0.184l-1.406-0.796l1.541-0.485l-1.607-0.155l1.209-1.069l-1.531,0.512l0.67-1.47l-1.191,1.091l0.014-1.615
	l-0.645,1.482l-0.643-1.482l0.014,1.615l-1.191-1.091l0.67,1.47l-1.531-0.512l1.209,1.069l-1.607,0.155l1.541,0.485l-1.406,0.796
	l1.604-0.184l-0.959,1.299l1.391-0.819l-0.35,1.577L128.193,79.107z"/>
<path fill="#020202" d="M130.643,77.643c0,1.174-0.953,2.126-2.127,2.126s-2.127-0.952-2.127-2.126c0-1.173,0.953-2.126,2.127-2.126
	S130.643,76.47,130.643,77.643"/>
<g opacity="0.74">
	<g>
		<defs>
			<rect id="SVGID_1_" x="128.516" y="75.31" width="2.324" height="2.322"/>
		</defs>
		<clipPath id="SVGID_2_">
			<use xlink:href="#SVGID_1_"  overflow="visible"/>
		</clipPath>
		<path clip-path="url(#SVGID_2_)" fill="#FFFFFF" d="M130.84,76.47c0,0.642-0.52,1.162-1.162,1.162s-1.162-0.521-1.162-1.162
			c0-0.641,0.52-1.162,1.162-1.162S130.84,75.83,130.84,76.47"/>
	</g>
</g>
<g opacity="0.74">
	<g>
		<defs>
			<rect id="SVGID_3_" x="126.414" y="78.613" width="1.121" height="1.122"/>
		</defs>
		<clipPath id="SVGID_4_">
			<use xlink:href="#SVGID_3_"  overflow="visible"/>
		</clipPath>
		<path clip-path="url(#SVGID_4_)" fill="#FFFFFF" d="M127.535,79.174c0,0.31-0.252,0.562-0.562,0.562
			c-0.309,0-0.559-0.252-0.559-0.562c0-0.309,0.25-0.562,0.559-0.562C127.283,78.613,127.535,78.866,127.535,79.174"/>
	</g>
</g>
<path fill="#5A4035" d="M86.988,77.643c0,2.364,1.918,4.282,4.281,4.282s4.28-1.918,4.28-4.282s-1.917-4.28-4.28-4.28
	S86.988,75.279,86.988,77.643"/>
<path fill="#231F20" d="M86.886,77.643c0-2.417,1.966-4.382,4.383-4.382s4.383,1.965,4.383,4.382s-1.966,4.384-4.383,4.384
	S86.886,80.06,86.886,77.643 M87.091,77.643c0,2.305,1.875,4.179,4.178,4.179c2.305,0,4.179-1.874,4.179-4.179
	c0-2.304-1.874-4.179-4.179-4.179C88.966,73.464,87.091,75.339,87.091,77.643"/>
<path fill="#6E5142" d="M90.84,79.609l-1.248,1.751l0.466-2.1l-1.854,1.092l1.279-1.729l-2.137,0.243l1.871-1.059l-2.05-0.646
	l2.14-0.207l-1.609-1.424l2.039,0.683l-0.892-1.956l1.585,1.451l-0.02-2.148l0.857,1.971l0.857-1.971l-0.018,2.148l1.584-1.451
	l-0.891,1.956l2.038-0.683l-1.61,1.424l2.141,0.207l-2.051,0.646l1.871,1.059l-2.136-0.243l1.278,1.729L92.48,79.26l0.467,2.1
	l-1.249-1.751l-0.429,2.107L90.84,79.609z M92.529,80.422l-0.35-1.577l1.393,0.82l-0.961-1.299l1.605,0.183l-1.406-0.794
	l1.541-0.486l-1.608-0.156l1.21-1.068l-1.531,0.512l0.669-1.47l-1.192,1.091l0.016-1.615l-0.645,1.482l-0.644-1.482l0.015,1.615
	l-1.192-1.091l0.67,1.47l-1.531-0.512l1.209,1.068l-1.606,0.156l1.539,0.486l-1.404,0.794l1.604-0.183l-0.961,1.299l1.392-0.82
	l-0.35,1.577l0.938-1.315l0.321,1.584l0.322-1.584L92.529,80.422z"/>
<path fill="#020202" d="M89.143,77.643c0,1.174,0.952,2.126,2.126,2.126s2.127-0.952,2.127-2.126c0-1.173-0.953-2.126-2.127-2.126
	S89.143,76.47,89.143,77.643"/>
<g opacity="0.74">
	<g>
		<defs>
			<rect id="SVGID_5_" x="88.947" y="75.31" width="2.322" height="2.322"/>
		</defs>
		<clipPath id="SVGID_6_">
			<use xlink:href="#SVGID_5_"  overflow="visible"/>
		</clipPath>
		<path clip-path="url(#SVGID_6_)" fill="#FFFFFF" d="M88.947,76.47c0,0.642,0.52,1.162,1.16,1.162c0.643,0,1.162-0.521,1.162-1.162
			c0-0.641-0.52-1.162-1.162-1.162C89.466,75.308,88.947,75.83,88.947,76.47"/>
	</g>
</g>
<g opacity="0.74">
	<g>
		<defs>
			<rect id="SVGID_7_" x="92.251" y="78.613" width="1.121" height="1.122"/>
		</defs>
		<clipPath id="SVGID_8_">
			<use xlink:href="#SVGID_7_"  overflow="visible"/>
		</clipPath>
		<path clip-path="url(#SVGID_8_)" fill="#FFFFFF" d="M92.251,79.174c0,0.31,0.25,0.562,0.561,0.562c0.31,0,0.561-0.252,0.561-0.562
			c0-0.309-0.251-0.562-0.561-0.562C92.501,78.613,92.251,78.866,92.251,79.174"/>
	</g>
</g>
</svg>
