<?xml version="1.0" encoding="utf-8"?>
<!-- Generator: Adobe Illustrator 16.0.0, SVG Export Plug-In . SVG Version: 6.00 Build 0)  -->
<!DOCTYPE svg PUBLIC "-//W3C//DTD SVG 1.1//EN" "http://www.w3.org/Graphics/SVG/1.1/DTD/svg11.dtd">
<svg version="1.1" id="Layer_1" xmlns="http://www.w3.org/2000/svg" xmlns:xlink="http://www.w3.org/1999/xlink" x="0px" y="0px"
	 width="220px" height="620px" viewBox="0 0 220 620" enable-background="new 0 0 220 620" xml:space="preserve">
<g opacity="0.74">
	<g>
		<defs>
			<rect id="SVGID_1_" x="126.721" y="78.951" width="1.175" height="1.176"/>
		</defs>
		<clipPath id="SVGID_2_">
			<use xlink:href="#SVGID_1_"  overflow="visible"/>
		</clipPath>
		<path clip-path="url(#SVGID_2_)" fill="#FFFFFF" d="M127.896,79.537c0,0.326-0.263,0.588-0.587,0.588
			c-0.325,0-0.588-0.262-0.588-0.588c0-0.324,0.263-0.586,0.588-0.586C127.633,78.951,127.896,79.213,127.896,79.537"/>
	</g>
</g>
<circle fill="#5A4137" cx="91.405" cy="77.686" r="4.405"/>
<circle fill="#5A4137" cx="129.605" cy="77.485" r="4.605"/>
<path fill="#020202" d="M89.06,77.419c0,1.23,0.998,2.228,2.229,2.228s2.229-0.997,2.229-2.228c0-1.231-0.998-2.229-2.229-2.229
	S89.06,76.188,89.06,77.419"/>
<path fill="#020202" d="M127.377,77.686c0,1.23,0.998,2.228,2.229,2.228s2.229-0.997,2.229-2.228c0-1.231-0.998-2.229-2.229-2.229
	S127.377,76.455,127.377,77.686"/>
</svg>
