<?xml version="1.0" encoding="utf-8"?>
<!-- Generator: Adobe Illustrator 16.0.0, SVG Export Plug-In . SVG Version: 6.00 Build 0)  -->
<!DOCTYPE svg PUBLIC "-//W3C//DTD SVG 1.1//EN" "http://www.w3.org/Graphics/SVG/1.1/DTD/svg11.dtd">
<svg version="1.1" id="Layer_1" xmlns="http://www.w3.org/2000/svg" xmlns:xlink="http://www.w3.org/1999/xlink" x="0px" y="0px"
	 width="220px" height="620px" viewBox="0 0 220 620" enable-background="new 0 0 220 620" xml:space="preserve">
<path fill="#5C886A" d="M132.76,77.51c0,2.343-1.9,4.242-4.243,4.242c-2.344,0-4.243-1.899-4.243-4.242
	c0-2.344,1.899-4.244,4.243-4.244C130.859,73.266,132.76,75.166,132.76,77.51"/>
<path fill="#231F20" d="M128.517,81.854c-2.396,0-4.345-1.948-4.345-4.344c0-2.396,1.948-4.345,4.345-4.345
	c2.396,0,4.345,1.948,4.345,4.345C132.861,79.905,130.912,81.854,128.517,81.854 M128.517,73.367c-2.284,0-4.143,1.858-4.143,4.143
	c0,2.283,1.858,4.142,4.143,4.142c2.283,0,4.142-1.858,4.142-4.142C132.658,75.226,130.8,73.367,128.517,73.367"/>
<path fill="#90B786" d="M128.517,81.546l-0.425-2.087l-1.238,1.734l0.461-2.081l-1.836,1.081l1.269-1.713l-2.117,0.242l1.854-1.051
	l-2.031-0.641l2.121-0.203l-1.596-1.413l2.021,0.677l-0.884-1.939l1.57,1.439l-0.018-2.131l0.85,1.954l0.85-1.954l-0.019,2.131
	l1.571-1.439l-0.884,1.939l2.021-0.677l-1.596,1.413l2.121,0.203l-2.032,0.641l1.854,1.051l-2.117-0.242l1.268,1.713l-1.837-1.081
	l0.462,2.081l-1.237-1.734L128.517,81.546z M128.197,78.961l0.319,1.569l0.319-1.569l0.93,1.303l-0.347-1.562l1.38,0.812
	l-0.953-1.287l1.591,0.182l-1.394-0.789l1.527-0.481l-1.595-0.153l1.199-1.061l-1.517,0.508l0.662-1.457l-1.18,1.082l0.015-1.602
	l-0.639,1.469l-0.64-1.469l0.016,1.602l-1.181-1.082l0.664,1.457l-1.519-0.508l1.199,1.061l-1.595,0.153l1.527,0.481l-1.395,0.789
	l1.592-0.182l-0.952,1.287l1.38-0.812l-0.348,1.562L128.197,78.961z"/>
<path fill="#020202" d="M130.624,77.51c0,1.164-0.943,2.106-2.107,2.106s-2.107-0.942-2.107-2.106s0.943-2.107,2.107-2.107
	S130.624,76.346,130.624,77.51"/>
<g opacity="0.74">
	<g>
		<defs>
			<rect id="SVGID_1_" x="128.517" y="75.195" width="2.303" height="2.303"/>
		</defs>
		<clipPath id="SVGID_2_">
			<use xlink:href="#SVGID_1_"  overflow="visible"/>
		</clipPath>
		<path clip-path="url(#SVGID_2_)" fill="#FFFFFF" d="M130.819,76.347c0,0.636-0.516,1.151-1.151,1.151s-1.151-0.516-1.151-1.151
			s0.516-1.151,1.151-1.151S130.819,75.711,130.819,76.347"/>
	</g>
</g>
<g opacity="0.74">
	<g>
		<defs>
			<rect id="SVGID_3_" x="126.432" y="78.473" width="1.111" height="1.109"/>
		</defs>
		<clipPath id="SVGID_4_">
			<use xlink:href="#SVGID_3_"  overflow="visible"/>
		</clipPath>
		<path clip-path="url(#SVGID_4_)" fill="#FFFFFF" d="M127.543,79.027c0,0.308-0.249,0.555-0.555,0.555
			c-0.308,0-0.557-0.247-0.557-0.555s0.249-0.555,0.557-0.555C127.294,78.473,127.543,78.72,127.543,79.027"/>
	</g>
</g>
<path fill="#5C886A" d="M87.026,77.51c0,2.343,1.9,4.242,4.243,4.242c2.344,0,4.242-1.899,4.242-4.242
	c0-2.344-1.898-4.244-4.242-4.244C88.927,73.266,87.026,75.166,87.026,77.51"/>
<path fill="#231F20" d="M86.925,77.51c0-2.396,1.95-4.346,4.345-4.346c2.396,0,4.344,1.949,4.344,4.346
	c0,2.396-1.947,4.345-4.344,4.345C88.875,81.854,86.925,79.905,86.925,77.51 M87.128,77.51c0,2.283,1.858,4.142,4.142,4.142
	c2.284,0,4.142-1.858,4.142-4.142c0-2.284-1.857-4.142-4.142-4.142C88.986,73.368,87.128,75.226,87.128,77.51"/>
<path fill="#90B786" d="M90.845,79.458l-1.237,1.735l0.461-2.081l-1.836,1.081L89.5,78.48l-2.118,0.242l1.854-1.05l-2.031-0.642
	l2.121-0.204l-1.597-1.411l2.021,0.676l-0.884-1.939l1.571,1.44l-0.019-2.132l0.85,1.955l0.85-1.955l-0.019,2.132l1.571-1.44
	l-0.884,1.939l2.021-0.676l-1.596,1.411l2.121,0.204l-2.033,0.642l1.855,1.05l-2.117-0.242l1.268,1.713l-1.836-1.081l0.461,2.081
	l-1.237-1.735l-0.425,2.087L90.845,79.458z M92.519,80.265l-0.347-1.563l1.381,0.812L92.6,78.228l1.59,0.181l-1.393-0.789
	l1.527-0.481l-1.595-0.152l1.198-1.062l-1.518,0.508l0.664-1.457l-1.18,1.082l0.014-1.602l-0.639,1.469l-0.639-1.469l0.015,1.602
	l-1.181-1.082l0.664,1.457l-1.519-0.508l1.199,1.062l-1.593,0.152l1.526,0.481l-1.394,0.789l1.59-0.181l-0.951,1.286l1.379-0.812
	l-0.347,1.563l0.931-1.303l0.318,1.567l0.318-1.567L92.519,80.265z"/>
<path fill="#020202" d="M89.162,77.51c0,1.164,0.943,2.106,2.107,2.106s2.106-0.942,2.106-2.106s-0.942-2.107-2.106-2.107
	S89.162,76.346,89.162,77.51"/>
<g opacity="0.74">
	<g>
		<defs>
			<rect id="SVGID_5_" x="88.967" y="75.195" width="2.303" height="2.303"/>
		</defs>
		<clipPath id="SVGID_6_">
			<use xlink:href="#SVGID_5_"  overflow="visible"/>
		</clipPath>
		<path clip-path="url(#SVGID_6_)" fill="#FFFFFF" d="M88.967,76.347c0,0.636,0.516,1.151,1.15,1.151
			c0.637,0,1.152-0.516,1.152-1.151s-0.516-1.151-1.152-1.151C89.482,75.195,88.967,75.711,88.967,76.347"/>
	</g>
</g>
<g opacity="0.74">
	<g>
		<defs>
			<rect id="SVGID_7_" x="92.243" y="78.473" width="1.111" height="1.109"/>
		</defs>
		<clipPath id="SVGID_8_">
			<use xlink:href="#SVGID_7_"  overflow="visible"/>
		</clipPath>
		<path clip-path="url(#SVGID_8_)" fill="#FFFFFF" d="M92.243,79.027c0,0.308,0.249,0.555,0.556,0.555s0.555-0.247,0.555-0.555
			s-0.248-0.555-0.555-0.555S92.243,78.72,92.243,79.027"/>
	</g>
</g>
</svg>
