<?xml version="1.0" encoding="utf-8"?>
<!-- Generator: Adobe Illustrator 16.0.0, SVG Export Plug-In . SVG Version: 6.00 Build 0)  -->
<!DOCTYPE svg PUBLIC "-//W3C//DTD SVG 1.1//EN" "http://www.w3.org/Graphics/SVG/1.1/DTD/svg11.dtd">
<svg version="1.1" id="Layer_1" xmlns="http://www.w3.org/2000/svg" xmlns:xlink="http://www.w3.org/1999/xlink" x="0px" y="0px"
	 width="220px" height="620px" viewBox="0 0 220 620" enable-background="new 0 0 220 620" xml:space="preserve">
<path fill="#F38780" d="M96.113,104.605c-0.016,0.011-0.023,0.017-0.023,0.017s6.506,5.67,14.09,5.67s13.754-5.638,13.754-5.638
	s-0.008-0.006-0.023-0.016c0,0-10.199,0.877-13.611,0.879C106.746,105.518,96.113,104.605,96.113,104.605"/>
<path fill="#E47E73" d="M110.18,103.061c-0.875,0-1.73-0.748-2.559-0.673c-6.113,0.565-11.154,2.032-11.508,2.218
	c0,0,10.662,0.913,14.186,0.912c3.416-0.004,13.635-0.863,13.635-0.863c-0.352-0.182-5.021-1.671-11.078-2.256
	C111.99,102.315,111.094,103.061,110.18,103.061"/>
</svg>
