<?xml version="1.0" encoding="utf-8"?>
<!-- Generator: Adobe Illustrator 16.0.0, SVG Export Plug-In . SVG Version: 6.00 Build 0)  -->
<!DOCTYPE svg PUBLIC "-//W3C//DTD SVG 1.1//EN" "http://www.w3.org/Graphics/SVG/1.1/DTD/svg11.dtd">
<svg version="1.1" id="Layer_1" xmlns="http://www.w3.org/2000/svg" xmlns:xlink="http://www.w3.org/1999/xlink" x="0px" y="0px"
	 width="220px" height="620px" viewBox="0 0 220 620" enable-background="new 0 0 220 620" xml:space="preserve">
<path fill="#F3B29E" d="M95.229,104.814c-0.014,0.008,6.952,3.812,14.762,3.812c7.809,0,14.279-3.695,14.279-3.695
	s0.302-0.137,0.287-0.141c0,0-10.899,1.199-14.541,1.203C106.334,106,95.229,104.814,95.229,104.814"/>
<path fill="#DCA192" d="M110.166,104.506c-1.985-0.025-2.984-0.908-4.051-0.814c-5.955,0.516-10.535,0.988-10.887,1.123
	c0,0,11.295,1.305,14.936,1.297c3.604-0.006,14.393-1.32,14.393-1.32c-0.357-0.141-4.316-0.566-10.423-1.051
	C113.161,103.664,112.028,104.529,110.166,104.506"/>
</svg>
