<?xml version="1.0" encoding="utf-8"?>
<!-- Generator: Adobe Illustrator 16.0.0, SVG Export Plug-In . SVG Version: 6.00 Build 0)  -->
<!DOCTYPE svg PUBLIC "-//W3C//DTD SVG 1.1//EN" "http://www.w3.org/Graphics/SVG/1.1/DTD/svg11.dtd">
<svg version="1.1" id="Layer_1" xmlns="http://www.w3.org/2000/svg" xmlns:xlink="http://www.w3.org/1999/xlink" x="0px" y="0px"
	 width="220px" height="620px" viewBox="0 0 220 620" enable-background="new 0 0 220 620" xml:space="preserve">
<path fill="#C48C85" d="M95.631,104.695c-0.016,0.013,6.687,6.404,14.384,6.404c7.696,0,14.072-6.22,14.072-6.22
	s0.298-0.266,0.283-0.276c0,0-10.742,1.298-14.331,1.306C106.411,105.917,95.631,104.695,95.631,104.695"/>
<path fill="#AE8075" d="M110.204,103.472c-1.956-0.039-2.94-1.467-3.991-1.316c-5.869,0.838-10.235,2.318-10.582,2.54
	c0,0,10.984,1.39,14.572,1.378c3.553-0.013,14.167-1.471,14.167-1.471c-0.352-0.225-4.237-1.585-10.253-2.367
	C113.157,102.109,112.04,103.51,110.204,103.472"/>
</svg>
